<?xml version="1.0" encoding="utf-8"?>
<!-- Generator: Adobe Illustrator 27.5.0, SVG Export Plug-In . SVG Version: 6.00 Build 0)  -->
<svg version="1.1" xmlns="http://www.w3.org/2000/svg" xmlns:xlink="http://www.w3.org/1999/xlink" x="0px" y="0px"
	 viewBox="0 0 750 500" style="enable-background:new 0 0 750 500;" xml:space="preserve">
<g id="BACKGROUND">
	<rect x="125" style="fill:#FFFFFF;" width="500" height="500"/>
</g>
<g id="OBJECTS">
	<g>
		<g>
			<path style="fill:#8EE4FD;" d="M615.074,342.913c-0.474-0.564-1.319-0.637-1.884-0.158c-0.564,0.477-0.635,1.32-0.158,1.884
				l2.498,2.945c1.184,1.396,2.371,2.793,3.549,4.195c0.264,0.315,0.642,0.477,1.025,0.477c0.303,0,0.608-0.103,0.859-0.313
				c0.565-0.475,0.638-1.319,0.163-1.884c-1.182-1.406-2.37-2.806-3.558-4.206L615.074,342.913z"/>
			<path style="fill:#8EE4FD;" d="M606.871,162.413c0.264,0.325,0.649,0.493,1.038,0.493c0.296,0,0.594-0.098,0.842-0.3
				c0.573-0.466,0.659-1.308,0.193-1.881c-1.955-2.404-4.166-4.734-6.574-6.926c-0.545-0.497-1.391-0.457-1.888,0.088
				c-0.497,0.546-0.458,1.392,0.089,1.889C602.879,157.879,604.998,160.112,606.871,162.413z"/>
			<path style="fill:#8EE4FD;" d="M595.116,268.102c0.144,0.049,0.291,0.073,0.435,0.073c0.555,0,1.073-0.347,1.264-0.902
				c0.934-2.713,2.003-5.558,3.268-8.697c0.276-0.686-0.056-1.464-0.74-1.74c-0.685-0.27-1.464,0.055-1.74,0.74
				c-1.282,3.183-2.367,6.07-3.315,8.827C594.047,267.101,594.417,267.862,595.116,268.102z"/>
			<path style="fill:#8EE4FD;" d="M615.915,215.954c0.124,0.035,0.248,0.053,0.371,0.053c0.581,0,1.115-0.381,1.285-0.967
				c0.92-3.193,1.654-6.302,2.178-9.239c0.129-0.727-0.354-1.421-1.081-1.551c-0.742-0.138-1.423,0.354-1.551,1.081
				c-0.508,2.847-1.22,5.864-2.115,8.968C614.796,215.008,615.206,215.749,615.915,215.954z"/>
			<path style="fill:#8EE4FD;" d="M617.702,187.121c0.304,2.271,0.458,4.621,0.458,6.984c0,0.708-0.014,1.415-0.041,2.122
				c-0.029,0.738,0.547,1.359,1.285,1.387c0.017,0.001,0.035,0.001,0.052,0.001c0.714,0,1.307-0.566,1.334-1.287
				c0.029-0.74,0.043-1.481,0.043-2.223c0-2.481-0.162-4.95-0.482-7.339c-0.098-0.731-0.764-1.24-1.503-1.148
				C618.119,185.716,617.604,186.389,617.702,187.121z"/>
			<path style="fill:#8EE4FD;" d="M615.671,178.257c0.187,0.561,0.709,0.917,1.269,0.917c0.14,0,0.282-0.022,0.422-0.068
				c0.7-0.233,1.08-0.99,0.847-1.69c-0.999-3.009-2.303-5.962-3.875-8.775c-0.36-0.645-1.175-0.874-1.82-0.515
				c-0.644,0.36-0.875,1.175-0.515,1.819C613.49,172.61,614.725,175.407,615.671,178.257z"/>
			<path style="fill:#8EE4FD;" d="M585.564,145.196c2.749,1.507,5.382,3.141,7.826,4.855c0.234,0.164,0.501,0.242,0.766,0.242
				c0.422,0,0.836-0.199,1.095-0.569c0.424-0.605,0.278-1.439-0.327-1.863c-2.525-1.77-5.241-3.455-8.074-5.01
				c-0.653-0.356-1.462-0.117-1.816,0.53C584.68,144.028,584.917,144.841,585.564,145.196z"/>
			<path style="fill:#8EE4FD;" d="M476.893,120.179c3.038,1.039,6.071,1.977,9.014,2.788c0.119,0.033,0.239,0.049,0.356,0.049
				c0.586,0,1.124-0.39,1.287-0.983c0.196-0.712-0.222-1.448-0.934-1.644c-2.891-0.797-5.871-1.719-8.86-2.741
				c-0.693-0.238-1.457,0.135-1.697,0.832C475.821,119.18,476.194,119.94,476.893,120.179z"/>
			<path style="fill:#8EE4FD;" d="M495.079,125.186c2.906,0.614,5.934,1.178,9.257,1.727c0.074,0.012,0.147,0.018,0.219,0.018
				c0.642,0,1.21-0.465,1.317-1.12c0.12-0.729-0.372-1.417-1.101-1.537c-3.284-0.541-6.274-1.099-9.139-1.705
				c-0.729-0.151-1.432,0.31-1.585,1.032C493.895,124.324,494.357,125.033,495.079,125.186z"/>
			<path style="fill:#8EE4FD;" d="M459.397,113.209c2.965,1.331,5.878,2.571,8.66,3.685c0.163,0.065,0.332,0.097,0.497,0.097
				c0.53,0,1.031-0.318,1.242-0.841c0.274-0.686-0.059-1.464-0.744-1.738c-2.748-1.101-5.629-2.326-8.561-3.642
				c-0.674-0.303-1.465,0-1.766,0.672C458.422,112.115,458.724,112.907,459.397,113.209z"/>
			<path style="fill:#8EE4FD;" d="M550.641,133.441c3.23,0.603,6.202,1.236,9.083,1.934c0.106,0.025,0.212,0.037,0.316,0.037
				c0.603,0,1.15-0.411,1.298-1.022c0.174-0.717-0.266-1.44-0.984-1.614c-2.928-0.71-5.945-1.351-9.222-1.963
				c-0.739-0.141-1.424,0.343-1.56,1.069C549.437,132.607,549.915,133.306,550.641,133.441z"/>
			<path style="fill:#8EE4FD;" d="M568.622,137.893c2.945,0.968,5.854,2.066,8.646,3.265c0.172,0.074,0.351,0.108,0.528,0.108
				c0.518,0,1.01-0.303,1.228-0.809c0.291-0.678-0.022-1.465-0.701-1.756c-2.863-1.229-5.845-2.355-8.865-3.348
				c-0.702-0.228-1.457,0.151-1.688,0.853C567.539,136.906,567.921,137.662,568.622,137.893z"/>
			<path style="fill:#8EE4FD;" d="M513.634,128.297c3.094,0.421,6.195,0.811,9.299,1.195c0.056,0.007,0.111,0.01,0.166,0.01
				c0.666,0,1.242-0.495,1.325-1.172c0.091-0.733-0.43-1.4-1.162-1.491c-3.093-0.383-6.184-0.772-9.267-1.191
				c-0.734-0.099-1.406,0.413-1.506,1.144C512.389,127.524,512.902,128.198,513.634,128.297z"/>
			<path style="fill:#8EE4FD;" d="M532.212,130.648c3.589,0.46,6.527,0.862,9.244,1.268c0.067,0.01,0.133,0.014,0.198,0.014
				c0.651,0,1.222-0.477,1.321-1.14c0.108-0.73-0.396-1.411-1.125-1.52c-2.735-0.407-5.69-0.813-9.299-1.274
				c-0.73-0.094-1.402,0.424-1.496,1.156C530.961,129.885,531.479,130.554,532.212,130.648z"/>
			<path style="fill:#8EE4FD;" d="M644.239,400.401c0.119,0.644,0.682,1.094,1.313,1.094c0.081,0,0.162-0.007,0.244-0.022
				c0.726-0.134,1.206-0.832,1.072-1.558c-0.572-3.096-1.31-6.203-2.192-9.234c-0.206-0.709-0.947-1.121-1.657-0.91
				c-0.709,0.206-1.116,0.948-0.91,1.657C642.968,394.374,643.684,397.393,644.239,400.401z"/>
			<path style="fill:#8EE4FD;" d="M589.018,294.3c0.024,3.25,0.317,6.458,0.874,9.538c0.117,0.646,0.68,1.099,1.315,1.099
				c0.078,0,0.159-0.007,0.239-0.021c0.727-0.132,1.209-0.828,1.078-1.554c-0.53-2.93-0.809-5.985-0.832-9.081
				c-0.005-0.735-0.603-1.328-1.337-1.328h-0.009C589.607,292.959,589.013,293.562,589.018,294.3z"/>
			<path style="fill:#8EE4FD;" d="M593.172,274.496c-0.713-0.184-1.444,0.247-1.628,0.962c-0.826,3.217-1.456,6.353-1.871,9.322
				c-0.102,0.731,0.407,1.408,1.139,1.509c0.063,0.009,0.125,0.013,0.187,0.013c0.657,0,1.23-0.483,1.323-1.152
				c0.401-2.871,1.012-5.908,1.814-9.027C594.318,275.409,593.887,274.68,593.172,274.496z"/>
			<path style="fill:#8EE4FD;" d="M593.212,311.357c-0.692,0.256-1.046,1.025-0.791,1.718c1.055,2.855,2.391,5.773,3.973,8.673
				c0.243,0.445,0.701,0.697,1.175,0.697c0.217,0,0.436-0.052,0.638-0.163c0.649-0.354,0.888-1.166,0.534-1.814
				c-1.52-2.786-2.802-5.585-3.811-8.321C594.675,311.456,593.904,311.103,593.212,311.357z"/>
			<path style="fill:#8EE4FD;" d="M128.167,307.692c-0.738,0.034-1.308,0.659-1.275,1.396c0.141,3.107,0.329,6.263,0.558,9.38
				c0.052,0.704,0.638,1.239,1.332,1.239c0.033,0,0.066-0.001,0.099-0.004c0.736-0.054,1.289-0.695,1.235-1.431
				c-0.227-3.092-0.413-6.223-0.553-9.304C129.529,308.228,128.908,307.651,128.167,307.692z"/>
			<path style="fill:#8EE4FD;" d="M134.896,355.233c-0.566-3.046-1.097-6.137-1.578-9.186c-0.115-0.73-0.802-1.221-1.529-1.114
				c-0.729,0.116-1.227,0.8-1.112,1.529c0.484,3.075,1.02,6.19,1.59,9.259c0.12,0.644,0.682,1.093,1.313,1.093
				c0.081,0,0.163-0.007,0.246-0.022C134.552,356.656,135.031,355.958,134.896,355.233z"/>
			<path style="fill:#8EE4FD;" d="M630.419,366.482c0.259,0.383,0.682,0.59,1.111,0.59c0.257,0,0.516-0.073,0.745-0.227
				c0.612-0.413,0.774-1.243,0.363-1.857c-1.624-2.413-3.447-4.911-5.574-7.634c-0.454-0.582-1.294-0.688-1.876-0.231
				c-0.582,0.454-0.685,1.294-0.231,1.876C627.044,361.673,628.831,364.12,630.419,366.482z"/>
			<path style="fill:#8EE4FD;" d="M129.462,326.361c-0.734,0.074-1.27,0.731-1.195,1.465c0.314,3.096,0.676,6.236,1.077,9.334
				c0.087,0.675,0.662,1.166,1.324,1.166c0.058,0,0.116-0.004,0.174-0.01c0.732-0.095,1.249-0.765,1.154-1.497
				c-0.397-3.075-0.757-6.19-1.068-9.261C130.854,326.822,130.213,326.303,129.462,326.361z"/>
			<path style="fill:#8EE4FD;" d="M442.488,105.016c3.02,1.55,5.766,2.925,8.394,4.204c0.188,0.091,0.388,0.135,0.584,0.135
				c0.496,0,0.971-0.277,1.204-0.753c0.322-0.664,0.047-1.464-0.618-1.787c-2.611-1.27-5.34-2.638-8.343-4.178
				c-0.653-0.338-1.462-0.077-1.799,0.579C441.573,103.873,441.831,104.679,442.488,105.016z"/>
			<path style="fill:#8EE4FD;" d="M645.46,409.539c0.205,2.481,0.308,4.997,0.308,7.477c0,0.578-0.005,1.157-0.017,1.738
				c-0.014,0.738,0.572,1.349,1.311,1.363h0.026c0.726,0,1.323-0.581,1.337-1.311c0.012-0.597,0.017-1.193,0.017-1.79
				c0-2.554-0.107-5.143-0.316-7.697c-0.06-0.735-0.691-1.274-1.443-1.224C645.947,408.158,645.4,408.803,645.46,409.539z"/>
			<path style="fill:#8EE4FD;" d="M639.083,382.723c0.211,0.52,0.711,0.834,1.239,0.834c0.168,0,0.338-0.031,0.503-0.098
				c0.684-0.278,1.014-1.057,0.736-1.742c-1.19-2.93-2.542-5.823-4.023-8.602c-0.349-0.65-1.153-0.896-1.81-0.551
				c-0.651,0.347-0.898,1.158-0.551,1.81C636.616,377.071,637.929,379.879,639.083,382.723z"/>
			<path style="fill:#8EE4FD;" d="M601.742,327.956c-0.607,0.421-0.759,1.252-0.338,1.861c1.637,2.366,3.485,4.841,5.651,7.569
				c0.264,0.332,0.654,0.505,1.048,0.505c0.291,0,0.585-0.095,0.83-0.29c0.579-0.46,0.675-1.3,0.215-1.879
				c-2.128-2.68-3.943-5.11-5.546-7.428C603.182,327.688,602.35,327.535,601.742,327.956z"/>
			<path style="fill:#8EE4FD;" d="M609.927,233.598c0.523,0,1.021-0.31,1.234-0.824c1.341-3.22,2.469-6.084,3.448-8.758
				c0.255-0.693-0.1-1.461-0.794-1.716c-0.696-0.253-1.461,0.102-1.716,0.795c-0.967,2.637-2.081,5.467-3.406,8.65
				c-0.285,0.682,0.038,1.464,0.721,1.748C609.581,233.565,609.755,233.598,609.927,233.598z"/>
			<path style="fill:#8EE4FD;" d="M606.77,239.636c-0.68-0.298-1.466,0.012-1.761,0.688l-1.246,2.837
				c-0.842,1.914-1.684,3.829-2.515,5.746c-0.294,0.678,0.017,1.465,0.693,1.759c0.174,0.076,0.354,0.111,0.531,0.111
				c0.517,0,1.009-0.3,1.227-0.804c0.831-1.913,1.671-3.824,2.511-5.736l1.247-2.839
				C607.755,240.721,607.446,239.932,606.77,239.636z"/>
			<path style="fill:#8EE4FD;" d="M646.324,436.594c0.603-2.732,1.084-5.531,1.427-8.32c0.091-0.732-0.43-1.4-1.163-1.49
				c-0.718-0.096-1.398,0.43-1.49,1.163c-0.334,2.705-0.8,5.42-1.385,8.069c-0.137,0.621,0.197,1.215,0.749,1.475h1.135
				C645.951,437.319,646.233,437.008,646.324,436.594z"/>
			<path style="fill:#8EE4FD;" d="M139.492,381.547c-0.712,0.194-1.132,0.93-0.938,1.642c0.825,3.021,1.7,6.059,2.599,9.029
				c0.175,0.577,0.705,0.949,1.279,0.949c0.129,0,0.259-0.018,0.388-0.057c0.707-0.214,1.106-0.96,0.892-1.667
				c-0.892-2.945-1.759-5.959-2.578-8.958C140.94,381.772,140.206,381.353,139.492,381.547z"/>
			<path style="fill:#8EE4FD;" d="M151.183,417.09c-0.686,0.273-1.022,1.05-0.75,1.735c1.154,2.91,2.359,5.832,3.583,8.686
				c0.217,0.507,0.711,0.809,1.229,0.809c0.176,0,0.355-0.034,0.526-0.108c0.679-0.291,0.993-1.077,0.702-1.756
				c-1.214-2.831-2.41-5.729-3.555-8.616C152.646,417.154,151.87,416.817,151.183,417.09z"/>
			<path style="fill:#8EE4FD;" d="M147.094,410.045c0.198,0.542,0.71,0.879,1.256,0.879c0.152,0,0.307-0.026,0.458-0.081
				c0.694-0.253,1.051-1.02,0.798-1.714c-1.054-2.892-2.087-5.853-3.07-8.801c-0.233-0.7-0.988-1.081-1.691-0.845
				c-0.7,0.232-1.079,0.99-0.845,1.691C144.99,404.144,146.032,407.129,147.094,410.045z"/>
			<path style="fill:#8EE4FD;" d="M147.309,210.997c0.419,0,0.832-0.197,1.093-0.565c1.497-2.115,3.111-4.157,4.796-6.069
				c0.321-0.364,0.644-0.723,0.97-1.078c0.499-0.544,0.464-1.39-0.08-1.889c-0.545-0.5-1.389-0.462-1.889,0.08
				c-0.338,0.369-0.674,0.742-1.007,1.119c-1.748,1.983-3.421,4.1-4.973,6.293c-0.426,0.603-0.283,1.437,0.319,1.864
				C146.773,210.918,147.042,210.997,147.309,210.997z"/>
			<path style="fill:#8EE4FD;" d="M174.984,186.159c0.247,0,0.497-0.069,0.72-0.212c2.265-1.452,4.786-3.006,7.931-4.891
				c0.633-0.38,0.839-1.201,0.46-1.835c-0.38-0.632-1.201-0.838-1.835-0.46c-3.169,1.9-5.711,3.468-7.999,4.935
				c-0.622,0.398-0.803,1.225-0.404,1.847C174.113,185.941,174.544,186.159,174.984,186.159z"/>
			<path style="fill:#8EE4FD;" d="M159.903,197.213c0.31,0,0.622-0.108,0.875-0.327c2.222-1.926,4.593-3.799,7.25-5.727
				c0.597-0.434,0.73-1.27,0.297-1.868c-0.435-0.597-1.269-0.73-1.868-0.297c-2.72,1.973-5.15,3.893-7.431,5.87
				c-0.558,0.484-0.618,1.328-0.134,1.886C159.157,197.057,159.529,197.213,159.903,197.213z"/>
			<path style="fill:#8EE4FD;" d="M135.137,363.345c-0.722,0.155-1.182,0.866-1.026,1.588c0.655,3.055,1.361,6.137,2.096,9.158
				c0.149,0.611,0.696,1.021,1.298,1.021c0.105,0,0.211-0.012,0.317-0.038c0.717-0.175,1.158-0.898,0.983-1.615
				c-0.73-2.998-1.43-6.056-2.08-9.087C136.57,363.65,135.865,363.186,135.137,363.345z"/>
			<path style="fill:#8EE4FD;" d="M128.079,282.294c0.018,0.001,0.035,0.001,0.052,0.001c0.715,0,1.308-0.565,1.335-1.285
				c0.044-1.145,0.095-2.289,0.151-3.434c0.096-1.949,0.213-3.906,0.354-5.865c0.053-0.736-0.501-1.378-1.237-1.43
				c-0.763-0.072-1.377,0.5-1.43,1.237c-0.143,1.979-0.261,3.957-0.358,5.926c-0.057,1.154-0.107,2.308-0.151,3.461
				C126.766,281.646,127.341,282.266,128.079,282.294z"/>
			<path style="fill:#8EE4FD;" d="M129.353,263.624c0.052,0.007,0.104,0.009,0.155,0.009c0.669,0,1.247-0.503,1.326-1.183
				c0.366-3.164,0.804-6.259,1.3-9.198c0.123-0.729-0.367-1.418-1.095-1.542c-0.718-0.116-1.418,0.367-1.541,1.095
				c-0.505,2.986-0.949,6.127-1.32,9.337C128.093,262.875,128.619,263.539,129.353,263.624z"/>
			<path style="fill:#8EE4FD;" d="M425.904,96.301l2.665,1.413c1.868,0.991,3.738,1.982,5.608,2.968
				c0.2,0.105,0.413,0.154,0.623,0.154c0.48,0,0.944-0.259,1.184-0.713c0.345-0.653,0.094-1.462-0.559-1.806
				c-1.87-0.985-3.737-1.975-5.604-2.965l-2.666-1.413c-0.655-0.346-1.461-0.096-1.807,0.556
				C425.002,95.147,425.251,95.956,425.904,96.301z"/>
			<path style="fill:#8EE4FD;" d="M190.995,176.465c0.232,0,0.468-0.061,0.682-0.188c2.374-1.413,5.183-3.097,8.024-4.878
				c0.626-0.393,0.815-1.217,0.422-1.843c-0.392-0.627-1.218-0.815-1.843-0.422c-2.817,1.766-5.611,3.44-7.971,4.845
				c-0.635,0.378-0.843,1.198-0.465,1.833C190.095,176.231,190.54,176.465,190.995,176.465z"/>
			<path style="fill:#8EE4FD;" d="M137.822,227.271c0.169,0.07,0.343,0.104,0.514,0.104c0.524,0,1.02-0.309,1.234-0.822
				c1.206-2.889,2.543-5.687,3.975-8.314c0.353-0.649,0.114-1.461-0.535-1.814c-0.651-0.353-1.462-0.114-1.813,0.535
				c-1.475,2.708-2.853,5.589-4.094,8.563C136.819,226.204,137.141,226.987,137.822,227.271z"/>
			<path style="fill:#8EE4FD;" d="M132.353,245.155c0.103,0.024,0.206,0.035,0.307,0.035c0.606,0,1.155-0.415,1.3-1.032
				c0.721-3.072,1.545-6.076,2.446-8.928c0.223-0.704-0.168-1.455-0.872-1.678c-0.702-0.222-1.454,0.168-1.678,0.872
				c-0.921,2.915-1.762,5.984-2.499,9.123C131.189,244.266,131.634,244.987,132.353,245.155z"/>
			<path style="fill:#8EE4FD;" d="M127.932,301.011h0.024c0.738-0.013,1.326-0.621,1.313-1.361
				c-0.034-1.939-0.051-3.879-0.051-5.819c0-1.167,0.006-2.336,0.018-3.502c0.008-0.739-0.584-1.343-1.323-1.351H127.9
				c-0.732,0-1.329,0.589-1.337,1.323c-0.012,1.176-0.018,2.353-0.018,3.53c0,1.956,0.017,3.912,0.051,5.866
				C126.608,300.427,127.204,301.011,127.932,301.011z"/>
			<path style="fill:#8EE4FD;" d="M338.431,68.422c3.032-0.097,6.097-0.043,9.221,0.162c0.03,0.002,0.06,0.003,0.089,0.003
				c0.699,0,1.287-0.543,1.333-1.249c0.048-0.737-0.51-1.374-1.247-1.422c-3.211-0.21-6.363-0.267-9.482-0.166
				c-0.738,0.024-1.317,0.642-1.293,1.379C337.075,67.867,337.703,68.446,338.431,68.422z"/>
			<path style="fill:#8EE4FD;" d="M319.898,71.075c0.113,0,0.228-0.015,0.342-0.045c2.927-0.773,5.96-1.385,9.015-1.818
				c0.731-0.104,1.24-0.781,1.136-1.512c-0.104-0.73-0.77-1.241-1.512-1.136c-3.158,0.449-6.294,1.081-9.322,1.881
				c-0.714,0.189-1.14,0.92-0.951,1.634C318.764,70.678,319.306,71.075,319.898,71.075z"/>
			<path style="fill:#8EE4FD;" d="M302.511,77.842c0.207,0,0.418-0.048,0.616-0.151c2.754-1.432,5.572-2.713,8.377-3.809
				c0.688-0.269,1.027-1.044,0.759-1.732c-0.268-0.687-1.041-1.026-1.732-0.759c-2.893,1.13-5.8,2.451-8.638,3.927
				c-0.655,0.341-0.91,1.148-0.569,1.803C301.562,77.58,302.028,77.842,302.511,77.842z"/>
			<path style="fill:#8EE4FD;" d="M206.807,166.453c0.264,0,0.531-0.078,0.764-0.241c0.906-0.633,1.804-1.276,2.693-1.93
				c1.608-1.182,3.241-2.442,4.856-3.743c0.575-0.463,0.665-1.305,0.201-1.88c-0.462-0.574-1.306-0.665-1.88-0.201
				c-1.583,1.276-3.184,2.511-4.76,3.67c-0.872,0.641-1.753,1.272-2.641,1.892c-0.605,0.423-0.753,1.257-0.33,1.862
				C205.969,166.254,206.385,166.453,206.807,166.453z"/>
			<path style="fill:#8EE4FD;" d="M374.889,73.706c2.881,0.859,5.847,1.835,8.819,2.902c0.149,0.054,0.302,0.08,0.452,0.08
				c0.548,0,1.063-0.34,1.259-0.886c0.249-0.695-0.112-1.46-0.807-1.71c-3.017-1.083-6.031-2.075-8.958-2.948
				c-0.707-0.211-1.453,0.191-1.663,0.9C373.779,72.75,374.182,73.495,374.889,73.706z"/>
			<path style="fill:#8EE4FD;" d="M409.309,87.718c2.784,1.383,5.554,2.801,8.318,4.236c0.197,0.103,0.407,0.151,0.615,0.151
				c0.483,0,0.949-0.262,1.188-0.721c0.339-0.655,0.085-1.462-0.571-1.803c-2.777-1.443-5.563-2.867-8.36-4.258
				c-0.665-0.328-1.464-0.059-1.793,0.602C408.378,86.586,408.648,87.389,409.309,87.718z"/>
			<path style="fill:#8EE4FD;" d="M392.379,79.958c2.784,1.148,5.652,2.402,8.53,3.726c0.182,0.084,0.371,0.123,0.558,0.123
				c0.507,0,0.991-0.289,1.216-0.778c0.309-0.67,0.016-1.464-0.655-1.773c-2.909-1.339-5.812-2.607-8.626-3.769
				c-0.68-0.281-1.465,0.042-1.747,0.726C391.372,78.895,391.697,79.677,392.379,79.958z"/>
			<path style="fill:#8EE4FD;" d="M356.835,69.592c2.958,0.451,6.016,1.037,9.091,1.743c0.1,0.023,0.201,0.034,0.3,0.034
				c0.609,0,1.16-0.419,1.302-1.038c0.165-0.719-0.284-1.437-1.004-1.602c-3.138-0.72-6.262-1.319-9.285-1.78
				c-0.729-0.113-1.412,0.391-1.524,1.12C355.604,68.799,356.106,69.48,356.835,69.592z"/>
			<path style="fill:#8EE4FD;" d="M234.699,141.597c0.354,0,0.709-0.14,0.972-0.419c1.976-2.092,4.059-4.348,6.368-6.9
				c0.495-0.547,0.454-1.393-0.094-1.888c-0.548-0.496-1.394-0.454-1.888,0.094c-2.297,2.536-4.367,4.779-6.33,6.858
				c-0.507,0.537-0.483,1.383,0.054,1.89C234.039,141.476,234.37,141.597,234.699,141.597z"/>
			<path style="fill:#8EE4FD;" d="M286.806,87.96c0.285,0,0.571-0.09,0.814-0.277c2.511-1.931,5.05-3.73,7.543-5.345
				c0.62-0.401,0.797-1.229,0.396-1.849c-0.401-0.62-1.227-0.797-1.849-0.395c-2.553,1.654-5.15,3.494-7.718,5.469
				c-0.586,0.45-0.695,1.29-0.245,1.875C286.009,87.781,286.405,87.96,286.806,87.96z"/>
			<path style="fill:#8EE4FD;" d="M247.289,127.741c0.369,0,0.736-0.152,1.001-0.45l6.21-7.003c0.49-0.552,0.441-1.397-0.111-1.888
				c-0.551-0.49-1.398-0.44-1.888,0.111l-6.211,7.006c-0.49,0.552-0.439,1.397,0.113,1.887
				C246.657,127.63,246.974,127.741,247.289,127.741z"/>
			<path style="fill:#8EE4FD;" d="M221.385,154.747c0.32,0,0.641-0.114,0.897-0.346c2.212-2.005,4.51-4.188,6.828-6.488
				c0.524-0.52,0.527-1.366,0.008-1.891c-0.519-0.523-1.366-0.527-1.891-0.008c-2.29,2.272-4.558,4.427-6.74,6.404
				c-0.547,0.496-0.589,1.341-0.093,1.889C220.658,154.599,221.021,154.747,221.385,154.747z"/>
			<path style="fill:#8EE4FD;" d="M259.756,113.774c0.364,0,0.725-0.147,0.989-0.437c2.288-2.511,4.368-4.743,6.359-6.826
				c0.51-0.533,0.491-1.38-0.043-1.89c-0.533-0.511-1.379-0.492-1.89,0.042c-2.006,2.098-4.1,4.346-6.403,6.873
				c-0.497,0.546-0.458,1.391,0.088,1.888C259.112,113.659,259.435,113.774,259.756,113.774z"/>
			<path style="fill:#8EE4FD;" d="M272.721,100.272c0.335,0,0.672-0.126,0.932-0.378c2.318-2.253,4.611-4.377,6.815-6.313
				c0.554-0.488,0.609-1.332,0.122-1.887c-0.486-0.555-1.331-0.608-1.887-0.121c-2.238,1.966-4.564,4.121-6.913,6.404
				c-0.53,0.515-0.542,1.361-0.027,1.891C272.024,100.136,272.372,100.272,272.721,100.272z"/>
		</g>
		<g>
			<path style="fill:none;stroke:#8EE4FD;stroke-width:1.337;stroke-miterlimit:10;" d="M639.721,141.947
				c0,5.661-4.589,10.25-10.25,10.25c-5.661,0-10.25-4.589-10.25-10.25c0-5.661,4.589-10.25,10.25-10.25
				C635.132,131.697,639.721,136.286,639.721,141.947z"/>
			<circle style="fill:none;stroke:#8EE4FD;stroke-width:1.337;stroke-miterlimit:10;" cx="121.421" cy="169.578" r="12.924"/>
			<path style="fill:none;stroke:#8EE4FD;stroke-width:1.337;stroke-miterlimit:10;" d="M453.436,59.5
				c0,4.43-3.592,8.022-8.022,8.022c-4.43,0-8.022-3.592-8.022-8.022c0-4.43,3.591-8.022,8.022-8.022
				C449.844,51.479,453.436,55.07,453.436,59.5z"/>
			<circle style="fill:#8EE4FD;" cx="639.052" cy="151.529" r="9.582"/>
			<circle style="fill:#8EE4FD;" cx="110.725" cy="180.274" r="9.359"/>
			
				<ellipse transform="matrix(0.1534 -0.9882 0.9882 0.1534 314.0327 460.5771)" style="fill:#8EE4FD;" cx="425.805" cy="47.022" rx="8.022" ry="8.022"/>
			<path style="fill:#8EE4FD;" d="M629.917,270.742c0,2.954-2.394,5.348-5.348,5.348s-5.348-2.394-5.348-5.348
				c0-2.954,2.394-5.348,5.348-5.348S629.917,267.789,629.917,270.742z"/>
		</g>
	</g>
	<g>
		<g>
			<path style="fill:#1F5B99;" d="M558.534,220.698H442.663c-3.692,0-6.685-2.993-6.685-6.685V98.143
				c0-3.692,2.993-6.685,6.685-6.685h115.871c3.692,0,6.685,2.993,6.685,6.685v115.871
				C565.219,217.706,562.226,220.698,558.534,220.698z"/>
			<path style="fill:#00A2DD;" d="M551.565,204.209H449.632c-3.11,0-5.632-2.521-5.632-5.632v-93.466
				c0-3.11,2.521-5.632,5.632-5.632h101.934c3.11,0,5.632,2.521,5.632,5.632v93.466
				C557.197,201.688,554.676,204.209,551.565,204.209z"/>
			<path style="fill:#0D2742;" d="M504.832,212.008c0,2.338-1.895,4.234-4.234,4.234c-2.338,0-4.234-1.896-4.234-4.234
				c0-2.338,1.896-4.234,4.234-4.234C502.937,207.775,504.832,209.67,504.832,212.008z"/>
		</g>
		<g>
			<g>
				<g>
					<path style="fill:#ED8D5D;" d="M537.26,186.766c-0.597-5.76-5.27-10.25-11.049-10.62l-8.533-0.546h-0.845
						c-3.14-0.001-5.684-2.545-5.684-5.685v-26.092h-20.508v26.092c0,3.14-2.545,5.684-5.684,5.685h-0.641l-8.534,0.546
						c-5.78,0.37-10.452,4.86-11.049,10.62c-0.321,3.097-0.587,5.965-0.587,6.972c0,0.705,1.099,4.715,2.682,10.13h68.338
						c1.583-5.415,2.682-9.426,2.682-10.13C537.847,192.731,537.582,189.863,537.26,186.766z"/>
					<path style="fill:#0B334C;" d="M511.157,157.86v4.035c-1.814,1.323-3.679,2.374-5.307,3.154
						c-3.035,1.475-6.579,1.475-9.631,0.017c-1.713-0.814-3.68-1.916-5.578-3.357v-4.035c1.899,1.441,3.866,2.543,5.578,3.374
						c3.052,1.458,6.596,1.441,9.631-0.017C507.478,160.25,509.343,159.199,511.157,157.86z"/>
				</g>
				<g>
					<path style="fill:#FFFFFF;" d="M454.228,204.189h92.506c0,0-5.289-14.232-10.097-22.117c-4.808-7.885-15.097-7.02-18.174-6.924
						c-3.077,0.096-5.289-1.154-5.289-1.154l-25.579,0.769c0,0-4.231,0.865-6.923,0.769c-2.693-0.096-10.962-0.096-16.251,6.539
						S454.228,204.189,454.228,204.189z"/>
				</g>
			</g>
			<g>
				<g>
					<path style="fill:#ED8D5D;" d="M528.379,137.161c-1.154,2.816-5.585,6.139-8.462,5.108c-0.462,3.093-1.077,5.739-1.892,7.539
						c-1.4,3.154-3.739,5.662-6.247,7.6c-2,1.554-4.108,2.739-5.923,3.616c-3.046,1.462-6.585,1.477-9.631,0.015
						c-1.4-0.677-3-1.539-4.585-2.631c-3-2.046-5.954-4.846-7.631-8.554c-0.815-1.816-1.431-4.477-1.908-7.585
						c-2.877,1.046-7.324-2.277-8.478-5.108c-1.185-2.877,0.2-6.154,3.062-7.339c1.431-0.585,2.97-0.523,4.293,0.015
						c-0.031-0.462-0.046-0.938-0.062-1.4c-0.015-0.292-0.015-0.569-0.015-0.846c0-11.016,8.97-20.032,20.078-20.048
						c11.401-0.015,20.571,9.462,20.109,20.848c-0.015,0.492-0.046,0.969-0.062,1.446c1.323-0.539,2.846-0.6,4.277-0.015
						C528.179,131.007,529.548,134.284,528.379,137.161z"/>
					<g>
						<g>
							<path style="fill:#E6794E;" d="M494.638,145.131c0,2.634-2.135,4.769-4.769,4.769c-2.634,0-4.769-2.135-4.769-4.769
								c0-2.634,2.135-4.769,4.769-4.769C492.503,140.363,494.638,142.497,494.638,145.131z"/>
							<path style="fill:#E6794E;" d="M516.893,145.131c0,2.634-2.135,4.769-4.769,4.769c-2.634,0-4.769-2.135-4.769-4.769
								c0-2.634,2.135-4.769,4.769-4.769C514.758,140.363,516.893,142.497,516.893,145.131z"/>
						</g>
						<g>
							<path style="fill:#0B334C;" d="M501.149,134.32c0.426,0.868,0.509,1.857,0.473,2.782c-0.044,0.932-0.214,1.822-0.393,2.666
								c-0.171,0.852-0.422,1.675-0.391,2.285c-0.017,0.62,0.52,1.332,1.067,2.123c-0.476-0.09-0.917-0.253-1.354-0.518
								c-0.417-0.274-0.84-0.696-1.044-1.261c-0.211-0.552-0.225-1.112-0.195-1.605c0.035-0.494,0.114-0.939,0.207-1.391
								c0.193-0.897,0.472-1.732,0.755-2.552L501.149,134.32z"/>
						</g>
						<g>
							<g>
								<path style="fill:#0B334C;" d="M495.776,129.967c-0.479-0.024-1.027-0.059-1.521-0.07c-0.503-0.004-0.996,0.002-1.472,0.085
									c-0.482,0.072-0.924,0.244-1.361,0.467c-0.443,0.223-0.81,0.578-1.214,0.952l-0.038,0.036
									c-0.15,0.139-0.383,0.13-0.522-0.02c-0.101-0.109-0.124-0.263-0.071-0.392c0.237-0.574,0.56-1.168,1.073-1.603
									c0.486-0.454,1.091-0.818,1.734-1.003c0.64-0.195,1.305-0.284,1.951-0.236c0.655,0.048,1.253,0.188,1.875,0.501
									c0.335,0.169,0.47,0.578,0.301,0.913c-0.125,0.248-0.38,0.386-0.64,0.373L495.776,129.967z"/>
							</g>
							<g>
								<path style="fill:#0B334C;" d="M505.784,128.685c0.622-0.313,1.22-0.453,1.875-0.501c0.646-0.048,1.311,0.041,1.951,0.236
									c0.643,0.185,1.248,0.548,1.734,1.003c0.513,0.435,0.836,1.03,1.073,1.603c0.078,0.188-0.012,0.404-0.2,0.482
									c-0.137,0.057-0.289,0.024-0.392-0.07l-0.039-0.036c-0.404-0.375-0.771-0.73-1.214-0.952
									c-0.437-0.223-0.879-0.395-1.361-0.467c-0.477-0.083-0.969-0.089-1.472-0.085c-0.493,0.011-1.042,0.046-1.521,0.07
									l-0.094,0.005c-0.375,0.019-0.694-0.27-0.713-0.645C505.397,129.049,505.552,128.803,505.784,128.685z"/>
							</g>
						</g>
						<g>
							<path style="fill:#0B334C;" d="M510.04,136.936c0,1.6-0.807,2.897-1.802,2.897c-0.995,0-1.802-1.297-1.802-2.897
								c0-1.6,0.806-2.897,1.802-2.897C509.233,134.039,510.04,135.336,510.04,136.936z"/>
							<path style="fill:#0B334C;" d="M495.557,136.936c0,1.6-0.807,2.897-1.802,2.897c-0.995,0-1.801-1.297-1.801-2.897
								c0-1.6,0.807-2.897,1.801-2.897C494.75,134.039,495.557,135.336,495.557,136.936z"/>
						</g>
						<g>
							<g>
								<path style="fill:#0B334C;" d="M504.885,147.87c0.43-0.275,0.874-0.425,1.298-0.628c0.444-0.164,0.842-0.356,1.301-0.568
									c-0.223,0.478-0.697,0.748-1.138,0.958C505.879,147.801,505.397,147.936,504.885,147.87z"/>
							</g>
							<g>
								<path style="fill:#0B334C;" d="M500.564,146.279c1.551,0.167,3.066,0.216,4.378-0.287c0.661-0.23,1.233-0.645,1.707-1.179
									c0.507-0.518,0.843-1.187,1.245-1.873c-0.061,0.777-0.243,1.591-0.72,2.276c-0.198,0.371-0.525,0.646-0.825,0.943
									c-0.345,0.246-0.704,0.474-1.102,0.623c-0.792,0.294-1.637,0.367-2.437,0.263
									C502.011,146.942,501.235,146.703,500.564,146.279z"/>
							</g>
						</g>
					</g>
				</g>
				<g>
					<path style="fill:#0B334C;" d="M522.763,115.144c-11.416-13.724-32.187-11.032-41.418-1.662
						c-1.775,1.799-3.326,4.173-4.627,6.981c-1.391,3.001-0.795,6.584,1.537,8.931l0.037,0.038c0.926-0.083,1.848,0.065,2.684,0.405
						c-0.004-0.055-0.004-0.112-0.008-0.167c1.336,0.85,2.644,2.286,2.781,4.706c0.003,0.049,0.01,0.08,0.014,0.124
						c0.217,0.192,0.435,0.386,0.644,0.572c1.869-1.535,7.034-15.216,7.034-15.216s12.615,15.108,25.364,14.919
						c2.592-2.671,4.618-5.918,6.822-8.953c0.01-0.014,0.02-0.027,0.03-0.041c2.011-2.769,2.066-6.531,0.099-9.332
						C523.438,115.993,523.106,115.558,522.763,115.144z"/>
					<g>
						<path style="fill:#FCB13A;" d="M520.529,185.838c4.349-2.053,7.663-5.041,8.971-9.338c3.951-12.983,1.862-30.62,0.102-40.656
							l0.065-0.011c0,0,1.667-19-13-27.333c-14.667-8.333-41-1.5-44.833,18.833c-3.262,17.304,5.421,34.72,8.082,39.528
							c-0.985,0.325-11.009,3.807-9.582,10.306c1.5,6.833,7.667,11.667,7.667,11.667s6.941,1.038,15.757,1.17
							c2.636,3.941,5.022,7.059,6.41,7.83c4.5,2.5,34.833-2.667,34.833-2.667C531.68,193.165,526.43,189.953,520.529,185.838z
							 M502.333,119.167c12.833,0.833,16.5,18.5,16.5,18.5s5.167,16.5-16.5,24.5l0,0c-6.016,0-11.686-3.119-14.644-8.357
							c-2.608-4.619-4.038-9.309-4.356-14.643C482.748,129.353,489.5,118.333,502.333,119.167z"/>
						<g>
							
								<path style="fill:none;stroke:#0B334C;stroke-width:0.6685;stroke-linecap:round;stroke-linejoin:round;stroke-miterlimit:10;" d="
								M479.915,166.861c0,0,12.918,0.139,21.751-4.361"/>
							
								<path style="fill:none;stroke:#0B334C;stroke-width:0.6685;stroke-linecap:round;stroke-linejoin:round;stroke-miterlimit:10;" d="
								M493.757,190.003c0,0,16.634,1.34,26.772-4.165"/>
							
								<path style="fill:none;stroke:#0B334C;stroke-width:0.6685;stroke-linecap:round;stroke-linejoin:round;stroke-miterlimit:10;" d="
								M505.333,190.667c0,0,2.167,4.333,4.833,5.333"/>
							
								<path style="fill:none;stroke:#0B334C;stroke-width:0.6685;stroke-linecap:round;stroke-linejoin:round;stroke-miterlimit:10;" d="
								M507.667,190.5c0,0,1.5,2.333,2.667,3"/>
							
								<path style="fill:none;stroke:#0B334C;stroke-width:0.6685;stroke-linecap:round;stroke-linejoin:round;stroke-miterlimit:10;" d="
								M480.5,172.333c0,0,30.667,1.333,40.667-18.833s-7.167-37.333-18-36"/>
						</g>
					</g>
				</g>
			</g>
		</g>
	</g>
	<g>
		<g>
			<g>
				<polygon style="fill:#0B334C;" points="332.597,433.853 259.029,433.853 268.225,388.639 323.401,388.639 				"/>
				<path style="fill:#0B334C;" d="M421.875,406.265H169.751c-2.328,0-4.215-1.887-4.215-4.215V230.391
					c0-2.328,1.887-4.215,4.215-4.215h252.124c2.328,0,4.215,1.887,4.215,4.215V402.05
					C426.089,404.378,424.202,406.265,421.875,406.265z"/>
				<path style="fill:#135985;" d="M426.089,379.827V230.391c0-2.328-1.887-4.215-4.215-4.215H169.751
					c-2.328,0-4.215,1.887-4.215,4.215v149.435H426.089z"/>
				<rect x="165.541" y="233.503" style="fill:#FCB13A;" width="260.543" height="138.498"/>
			</g>
			<g>
				
					<line style="fill:none;stroke:#FFFFFF;stroke-width:1.0027;stroke-linecap:round;stroke-linejoin:round;stroke-miterlimit:10;" x1="265.493" y1="406.167" x2="325.824" y2="406.167"/>
				
					<path style="fill:none;stroke:#FFFFFF;stroke-width:1.0027;stroke-linecap:round;stroke-linejoin:round;stroke-miterlimit:10;" d="
					M302.01,391.627c0,3.508-2.843,6.351-6.351,6.351c-3.508,0-6.351-2.843-6.351-6.351c0-3.507,2.843-6.35,6.351-6.35
					C299.166,385.276,302.01,388.12,302.01,391.627z"/>
			</g>
		</g>
		<g>
			<defs>
				<rect id="SVGID_1_" x="165.541" y="233.753" width="260.543" height="138.498"/>
			</defs>
			<clipPath id="SVGID_00000008115326210025661350000006154983851923991968_">
				<use xlink:href="#SVGID_1_"  style="overflow:visible;"/>
			</clipPath>
			<g style="clip-path:url(#SVGID_00000008115326210025661350000006154983851923991968_);">
				<path style="fill:#FFFFFF;" d="M346.812,295.587l4.293-16.02v-22.716c0-0.685,0.555-1.239,1.24-1.239h56.373
					c0.684,0,1.239,0.555,1.239,1.239v33.713c0,0.684-0.555,1.239-1.239,1.239h-43.225l-17.716,4.747
					C347.191,296.707,346.655,296.172,346.812,295.587z"/>
				<g>
					<g>
						<path style="fill:#00A2DD;" d="M368.259,272.302c0,1.754-1.422,3.175-3.175,3.175c-1.754,0-3.175-1.422-3.175-3.175
							c0-1.754,1.422-3.175,3.175-3.175C366.838,269.127,368.259,270.548,368.259,272.302z"/>
						<path style="fill:#00A2DD;" d="M383.802,272.302c0,1.754-1.422,3.175-3.175,3.175c-1.754,0-3.175-1.422-3.175-3.175
							c0-1.754,1.422-3.175,3.175-3.175C382.38,269.127,383.802,270.548,383.802,272.302z"/>
						<path style="fill:#00A2DD;" d="M399.344,272.302c0,1.754-1.422,3.175-3.175,3.175c-1.754,0-3.175-1.422-3.175-3.175
							c0-1.754,1.422-3.175,3.175-3.175C397.922,269.127,399.344,270.548,399.344,272.302z"/>
					</g>
				</g>
			</g>
			<g style="clip-path:url(#SVGID_00000008115326210025661350000006154983851923991968_);">
				<path style="fill:#2CD0D1;" d="M188.628,226.819c0,0,47.506-5.634,47.266,8.798c-0.24,14.433-47.404,6.967-47.404,6.967
					s51.214,7.827,47.249,34.947c-3.966,27.12-54.18-20.339-54.18-20.339s32.994,37.039,27.424,47.52
					c-5.57,10.481-27.501-8.965-38.479-38.632c0,0,15.511,36.361,2.019,48.452c-13.492,12.091-13.607-46.563-13.607-46.563
					l-0.053-35.864L188.628,226.819z"/>
				<g>
					
						<line style="fill:none;stroke:#0B334C;stroke-width:1.0027;stroke-linecap:round;stroke-linejoin:round;stroke-miterlimit:10;" x1="172.003" y1="241.886" x2="229.493" y2="275.31"/>
					
						<line style="fill:none;stroke:#0B334C;stroke-width:1.0027;stroke-linecap:round;stroke-linejoin:round;stroke-miterlimit:10;" x1="200.748" y1="299.71" x2="170.332" y2="247.234"/>
				</g>
			</g>
			<g style="clip-path:url(#SVGID_00000008115326210025661350000006154983851923991968_);">
				<g>
					<g>
						<path style="fill:#CC6F49;" d="M348.273,362.283l-3.051-6.858c-1.069-2.312-2.117-4.47-3.376-6.993
							c-1.371-2.749-3.38-4.966-5.752-6.577c-2.202-1.729-4.92-2.828-7.885-3.017l-10.248-0.656h-1.014
							c-3.77,0-6.827-3.057-6.827-6.827v-31.335H285.49v31.335c0,3.77-3.056,6.827-6.827,6.827h-0.77l-10.248,0.656
							c-0.932,0.06-1.838,0.215-2.713,0.445c-4.879,1.114-9.239,4.322-11.646,9.15c-1.259,2.524-2.307,4.681-3.376,6.993
							l-3.051,6.858c-1.519,3.55-3.006,7.106-4.444,10.68h14.721h22.867h35.129h23.588h13.999
							C351.278,369.389,349.792,365.833,348.273,362.283z"/>
						<path style="fill:#0B334C;" d="M310.128,316.876v4.846c-2.178,1.588-4.419,2.851-6.373,3.788
							c-3.645,1.771-7.901,1.771-11.566,0.02c-2.057-0.978-4.419-2.301-6.699-4.032v-4.846c2.28,1.731,4.643,3.055,6.699,4.052
							c3.665,1.751,7.921,1.731,11.566-0.02C305.71,319.747,307.95,318.485,310.128,316.876z"/>
					</g>
					<g>
						<path style="fill:#00A2DD;" d="M242.414,372.963c0,0,7.802-26.236,16.604-31.695c8.802-5.459,55.039,5.682,74.648-1.337
							c0,0,13.035,6.017,19.72,32.867l-111.08-0.223"/>
						<g>
							
								<path style="fill:none;stroke:#0B334C;stroke-width:0.6685;stroke-linecap:round;stroke-linejoin:round;stroke-miterlimit:10;" d="
								M257.402,343.663c0,0,66.849,7.855,78.046-2.005"/>
							
								<line style="fill:none;stroke:#0B334C;stroke-width:0.6685;stroke-linecap:round;stroke-linejoin:round;stroke-miterlimit:10;" x1="261.413" y1="371.572" x2="264.254" y2="356.03"/>
							
								<line style="fill:none;stroke:#0B334C;stroke-width:0.6685;stroke-linecap:round;stroke-linejoin:round;stroke-miterlimit:10;" x1="334.111" y1="371.071" x2="330.434" y2="356.531"/>
						</g>
					</g>
				</g>
				<g>
					<g>
						<g>
							<path style="fill:#CC6F49;" d="M327.37,283.964c-1.717-0.702-3.556-0.643-5.143,0.018c0.027-0.58,0.053-1.159,0.076-1.738
								c0.549-13.686-10.455-25.057-24.152-25.043h0c-13.695,0.014-24.675,11.406-24.099,25.089c0.024,0.563,0.05,1.128,0.077,1.692
								c-1.588-0.662-3.428-0.721-5.147-0.019c-3.448,1.41-5.101,5.348-3.691,8.797c1.393,3.407,6.734,7.405,10.188,6.14
								c0.567,3.736,1.313,6.928,2.294,9.104c3.07,6.812,9.775,11.096,14.673,13.44c3.659,1.751,7.911,1.744,11.566-0.014
								c4.886-2.351,11.558-6.642,14.618-13.468c0.972-2.168,1.709-5.341,2.267-9.054c3.454,1.236,8.773-2.749,10.162-6.148
								C332.471,289.312,330.818,285.374,327.37,283.964z"/>
							<g>
								<g>
									<path style="fill:#C4533A;" d="M290.29,301.59c0,3.163-2.564,5.727-5.727,5.727c-3.163,0-5.727-2.564-5.727-5.727
										c0-3.163,2.564-5.727,5.727-5.727C287.726,295.863,290.29,298.427,290.29,301.59z"/>
									<path style="fill:#C4533A;" d="M317.017,301.59c0,3.163-2.564,5.727-5.727,5.727c-3.163,0-5.727-2.564-5.727-5.727
										c0-3.163,2.564-5.727,5.727-5.727C314.452,295.863,317.017,298.427,317.017,301.59z"/>
								</g>
								<g>
									<path style="fill:#0B334C;" d="M298.108,288.607c0.512,1.043,0.611,2.23,0.568,3.341c-0.053,1.119-0.256,2.188-0.472,3.202
										c-0.205,1.024-0.507,2.011-0.469,2.744c-0.02,0.744,0.625,1.599,1.281,2.55c-0.572-0.108-1.101-0.304-1.626-0.622
										c-0.501-0.328-1.009-0.836-1.254-1.514c-0.254-0.663-0.27-1.336-0.234-1.927c0.042-0.594,0.137-1.127,0.248-1.671
										c0.232-1.077,0.567-2.081,0.907-3.065C297.414,290.659,297.742,289.701,298.108,288.607z"/>
								</g>
								<g>
									<g>
										<path style="fill:#0B334C;" d="M291.656,283.379c-0.575-0.029-1.234-0.071-1.826-0.084
											c-0.604-0.005-1.196,0.003-1.768,0.102c-0.578,0.087-1.112,0.291-1.629,0.568c-0.537,0.26-0.98,0.686-1.464,1.137
											l-0.046,0.043c-0.179,0.167-0.46,0.157-0.626-0.023c-0.122-0.131-0.149-0.316-0.085-0.472
											c0.285-0.688,0.672-1.402,1.283-1.933c0.591-0.537,1.315-0.974,2.088-1.197c0.768-0.234,1.567-0.341,2.343-0.283
											c0.786,0.057,1.505,0.226,2.251,0.602c0.403,0.203,0.565,0.694,0.362,1.097c-0.15,0.297-0.457,0.463-0.769,0.448
											L291.656,283.379z"/>
									</g>
									<g>
										<path style="fill:#0B334C;" d="M303.675,281.839c0.747-0.376,1.465-0.545,2.251-0.602
											c0.775-0.058,1.574,0.049,2.343,0.283c0.772,0.222,1.497,0.66,2.088,1.197c0.611,0.531,0.998,1.245,1.283,1.933
											c0.094,0.226-0.013,0.486-0.24,0.579c-0.165,0.069-0.348,0.03-0.471-0.085l-0.046-0.043
											c-0.484-0.45-0.927-0.877-1.464-1.137c-0.517-0.277-1.051-0.482-1.629-0.568c-0.573-0.1-1.164-0.107-1.768-0.102
											c-0.592,0.013-1.251,0.056-1.826,0.084l-0.112,0.006c-0.451,0.022-0.834-0.325-0.856-0.775
											C303.211,282.277,303.396,281.98,303.675,281.839z"/>
									</g>
								</g>
								<g>
									<ellipse style="fill:#0B334C;" cx="306.623" cy="291.748" rx="2.164" ry="3.479"/>
									<ellipse style="fill:#0B334C;" cx="289.229" cy="291.748" rx="2.164" ry="3.479"/>
								</g>
								<g>
									<g>
										<path style="fill:#0B334C;" d="M302.596,304.88c0.521-0.319,1.043-0.529,1.559-0.754c0.525-0.216,1.016-0.416,1.563-0.682
											c-0.128,0.283-0.35,0.506-0.586,0.697c-0.235,0.197-0.508,0.331-0.78,0.454
											C303.797,304.815,303.206,304.947,302.596,304.88z"/>
									</g>
									<g>
										<path style="fill:#0B334C;" d="M297.406,302.969c1.862,0.201,3.682,0.259,5.258-0.344c0.794-0.276,1.481-0.775,2.05-1.415
											c0.608-0.622,1.013-1.426,1.495-2.249c-0.073,0.932-0.292,1.911-0.865,2.733c-0.238,0.446-0.63,0.776-0.991,1.133
											c-0.414,0.296-0.846,0.569-1.323,0.748c-0.951,0.353-1.966,0.441-2.927,0.316
											C299.144,303.764,298.213,303.478,297.406,302.969z"/>
									</g>
								</g>
							</g>
						</g>
					</g>
					<path style="fill:#FFFFFF;" d="M341.25,294.5c0,0,3-3.25,2-7s-4.5-5.75-4.5-5.75s4.5-9.25-0.25-15S325.25,262,325.25,262
						s4.25-11.5-11.75-16.5s-23,9.25-23,9.25c-2-5-14.75-11.75-23.5-4.25c-8.59,7.36-2.96,18.34-2.76,18.74
						c-3.5-1.99-10.24,0.51-11.24,5.76s3.5,10.5,3.5,10.5s-8.5,5.75-6.25,15.75s11.5,12.25,11.5,12.25c-4.75,8.75,4.25,13,4.25,13
						c8.35,5.2,15.41,3.25,19.49,1.09v-10.34c-3.08-2.34-5.98-5.39-7.72-9.25c-0.98-2.17-1.72-5.36-2.29-9.1
						c-3.45,1.26-8.8-2.73-10.19-6.14c-1.41-3.45,0.24-7.39,3.69-8.8c1.532-0.623,3.158-0.641,4.618-0.172
						c2.094,8.053,4.337,10.668,5.402,10.212c1.167-0.5,5-7.833,3-14.417c0,0,7.75,3.25,10.417-4.5c0,0,1.5,8.167,9.25,9.417
						s10.417-3.833,10.417-3.833S310.25,294.75,315.917,295c3.095,0.137,5.168-5.715,6.415-11.057
						c1.557-0.621,3.355-0.668,5.038,0.017c3.45,1.41,5.1,5.35,3.69,8.8c-1.39,3.4-6.71,7.38-10.16,6.15
						c-0.56,3.71-1.3,6.88-2.27,9.05c-1.89,4.21-5.14,7.46-8.51,9.88V328c14.46,2.17,21.38-11.25,21.38-11.25S342.25,313.5,344,306
						S341.25,294.5,341.25,294.5z"/>
				</g>
			</g>
		</g>
	</g>
	<g>
		<g>
			<path style="fill:#00A2DD;" d="M560.763,407.114H442.217c-3.446,0-6.239-2.793-6.239-6.239V232.416
				c0-3.446,2.793-6.239,6.239-6.239h118.545c3.446,0,6.239,2.793,6.239,6.239v168.459
				C567.002,404.32,564.208,407.114,560.763,407.114z"/>
			<rect x="440.435" y="232.331" style="fill:#8EE4FD;" width="122.11" height="154.812"/>
			<rect x="483.33" y="391.961" style="fill:#006C94;" width="36.321" height="5.125"/>
		</g>
		<g>
			<g>
				<g>
					<path style="fill:#FA9778;" d="M505.335,304.569v-21.728h-17.078v21.728c0,2.615-2.12,4.734-4.734,4.734l0,0
						c15.048,22.319,26.715,0,26.715,0h-0.169C507.455,309.303,505.335,307.183,505.335,304.569z"/>
					<path style="fill:#0B334C;" d="M505.342,294.53v3.36c-1.511,1.102-3.064,1.977-4.419,2.626
						c-2.527,1.228-5.479,1.228-8.02,0.014c-1.426-0.678-3.064-1.596-4.646-2.796v-3.361c1.581,1.2,3.22,2.118,4.646,2.81
						c2.541,1.214,5.492,1.2,8.02-0.014C502.278,296.521,503.831,295.646,505.342,294.53z"/>
				</g>
				<g>
					<path style="fill:#FFFFFF;" d="M464.983,387.226h67.24l-1.72-20.946l8.913-25.291c0,0-10.027-23.174-14.484-28.299
						c-4.457-5.125-15.152-3.9-15.152-3.9s-2.674,7.911-12.256,9.359c-9.582,1.448-14.484-11.587-14.484-11.587
						c-16.541-2.496-21.503,17.492-21.503,17.492c-13.147,27.742-13.481,37.547-13.481,37.547l16.935,5.794L464.983,387.226z"/>
					
						<path style="fill:none;stroke:#0B334C;stroke-width:0.6685;stroke-linecap:round;stroke-linejoin:round;stroke-miterlimit:10;" d="
						M484.574,312.188c0,0,11.03,18.049,22.394,3.51"/>
				</g>
				<g>
					<g>
						<path style="fill:#FA8764;" d="M543.664,302.361c0,0-5.626-8.722-4.616-9.901c1.011-1.179,5.077,1.884,5.077,1.884
							s-0.335-11.393,0.988-11.847c1.323-0.454,2.208,8.731,2.208,8.731s0.792-7.615,2.291-8.059
							c1.499-0.444,0.748,9.325,0.748,9.325s2.557-7.366,4.181-6.919c1.624,0.447-1.924,9.171-1.924,9.171s2.924-4.723,4.013-4.189
							c1.089,0.534-3.423,12.355-3.423,12.355L543.664,302.361z"/>
					</g>
					<g>
						<path style="fill:#F64652;" d="M532.892,387.226l-1.274-13.871c6.267,6.768,11.531,3.342,11.531,3.342
							c16.629-8.607,16.963-73.701,14.707-74.286c-2.256-0.585-15.375-0.334-16.712,0.334c-1.337,0.668-1.253,39.19-1.253,39.19
							c-1.253-12.534-13.704-31.669-13.704-31.669c-1.17-5.682-7.938-7.938-7.938-7.938c-3.677-3.844-12.785-2.34-12.785-2.34
							l-0.167,4.178c0.167,3.844,1.922,4.178,1.922,4.178c2.785,11.253-10.584,34.984-10.584,34.984s-14.627-29.893-12.578-34.026
							c0,0,3.79-0.266,4.201-4.734v-4.357c0,0-8.224-1.671-12.346,2.005c0,0-7.799,1.616-8.022,8.078c0,0-1.393,3.732-3.9,7.298
							c-2.433,3.461-19.141,36.421-21.851,69.634H532.892z"/>
						<g>
							
								<path style="fill:none;stroke:#0B334C;stroke-width:0.6685;stroke-linecap:round;stroke-linejoin:round;stroke-miterlimit:10;" d="
								M516.16,322.049c1.003-10.027,9.192-11.699,9.192-11.699"/>
							
								<polyline style="fill:none;stroke:#0B334C;stroke-width:0.6685;stroke-linecap:round;stroke-linejoin:round;stroke-miterlimit:10;" points="
								481.231,329.736 497.442,353.802 512.149,328.901 							"/>
							
								<path style="fill:none;stroke:#0B334C;stroke-width:0.6685;stroke-linecap:round;stroke-linejoin:round;stroke-miterlimit:10;" d="
								M468.029,311.353c0,0,8.022,1.838,8.857,11.364"/>
							
								<polyline style="fill:none;stroke:#0B334C;stroke-width:0.6685;stroke-linecap:round;stroke-linejoin:round;stroke-miterlimit:10;" points="
								518.611,346.95 531.535,373.466 525.853,370.514 							"/>
							
								<path style="fill:none;stroke:#0B334C;stroke-width:0.6685;stroke-linecap:round;stroke-linejoin:round;stroke-miterlimit:10;" d="
								M539.779,340.933c-0.223,1.114-1.56,13.592-1.56,13.592L539.779,340.933z"/>
							
								<line style="fill:none;stroke:#0B334C;stroke-width:0.6685;stroke-linecap:round;stroke-linejoin:round;stroke-miterlimit:10;" x1="535.546" y1="346.504" x2="539.779" y2="340.933"/>
							
								<polyline style="fill:none;stroke:#0B334C;stroke-width:0.6685;stroke-linecap:round;stroke-linejoin:round;stroke-miterlimit:10;" points="
								464.909,386.836 473.376,343.162 473.711,348.287 							"/>
							
								<line style="fill:none;stroke:#0B334C;stroke-width:0.6685;stroke-linecap:round;stroke-linejoin:round;stroke-miterlimit:10;" x1="541.729" y1="306.339" x2="557.606" y2="306.506"/>
						</g>
					</g>
				</g>
			</g>
			<g>
				<g>
					<path style="fill:#FA9778;" d="M517.124,271.188c-1.191-0.487-2.466-0.446-3.566,0.012c0.019-0.402,0.037-0.804,0.053-1.205
						c0.381-9.49-7.25-17.375-16.747-17.365c-9.496,0.01-17.11,7.909-16.711,17.397c0.016,0.391,0.035,0.782,0.054,1.173
						c-1.101-0.459-2.377-0.5-3.569-0.013c-2.391,0.978-3.537,3.708-2.559,6.1c0.966,2.362,4.67,5.134,7.065,4.258
						c0.393,2.59,0.911,4.804,1.591,6.313c2.129,4.723,6.778,7.694,10.175,9.319c2.537,1.214,5.486,1.209,8.02-0.01
						c3.388-1.63,8.015-4.605,10.136-9.339c0.674-1.503,1.185-3.703,1.572-6.278c2.395,0.857,6.083-1.906,7.047-4.263
						C520.661,274.897,519.515,272.166,517.124,271.188z"/>
					<g>
						<g>
							<path style="fill:#0B334C;" d="M497.007,274.928c0.353,0.723,0.428,1.547,0.389,2.316c-0.037,0.776-0.171,1.518-0.323,2.221
								c-0.139,0.71-0.357,1.393-0.329,1.904c-0.006,0.513,0.435,1.108,0.893,1.767c-0.397-0.075-0.763-0.211-1.128-0.431
								c-0.349-0.227-0.698-0.581-0.865-1.051c-0.187-0.458-0.176-0.925-0.165-1.335c0.027-0.412,0.094-0.782,0.171-1.159
								c0.159-0.747,0.398-1.441,0.634-2.124L497.007,274.928z"/>
						</g>
						<g>
							<g>
								<path style="fill:#0B334C;" d="M492.533,271.303c-0.399-0.017-0.854-0.06-1.266-0.058c-0.419-0.003-0.828,0.003-1.228,0.064
									c-0.404,0.057-0.766,0.215-1.132,0.396c-0.369,0.186-0.675,0.481-1.011,0.793l-0.032,0.03
									c-0.125,0.116-0.319,0.108-0.435-0.016c-0.084-0.091-0.103-0.219-0.059-0.326c0.197-0.477,0.466-0.973,0.894-1.335
									c0.402-0.383,0.913-0.671,1.446-0.828c0.53-0.17,1.085-0.244,1.623-0.203c0.544,0.05,1.044,0.153,1.561,0.417
									c0.279,0.142,0.389,0.483,0.247,0.762c-0.104,0.203-0.314,0.317-0.528,0.309L492.533,271.303z"/>
							</g>
							<g>
								<path style="fill:#0B334C;" d="M500.867,270.235c0.518-0.264,1.017-0.367,1.561-0.417c0.538-0.041,1.092,0.033,1.623,0.203
									c0.533,0.157,1.043,0.444,1.446,0.828c0.427,0.362,0.696,0.858,0.894,1.335c0.065,0.157-0.01,0.337-0.167,0.402
									c-0.114,0.047-0.241,0.02-0.326-0.059l-0.032-0.03c-0.336-0.312-0.643-0.608-1.011-0.793
									c-0.366-0.181-0.728-0.339-1.132-0.396c-0.4-0.061-0.809-0.066-1.228-0.064c-0.412-0.001-0.867,0.042-1.266,0.058
									l-0.08,0.003c-0.313,0.013-0.577-0.23-0.59-0.543C500.549,270.535,500.677,270.333,500.867,270.235z"/>
							</g>
						</g>
						<g>
							<path style="fill:#0B334C;" d="M504.411,277.106c0,1.332-0.672,2.412-1.5,2.412c-0.828,0-1.5-1.08-1.5-2.412
								c0-1.332,0.672-2.412,1.5-2.412C503.74,274.694,504.411,275.774,504.411,277.106z"/>
							<path style="fill:#0B334C;" d="M492.351,277.106c0,1.332-0.672,2.412-1.5,2.412c-0.829,0-1.5-1.08-1.5-2.412
								c0-1.332,0.672-2.412,1.5-2.412C491.679,274.694,492.351,275.774,492.351,277.106z"/>
						</g>
						<g>
							<g>
								<path style="fill:#0B334C;" d="M500.119,286.212c0.358-0.229,0.728-0.354,1.081-0.523c0.37-0.137,0.701-0.296,1.083-0.473
									c-0.185,0.398-0.58,0.623-0.947,0.798C500.947,286.154,500.545,286.267,500.119,286.212z"/>
							</g>
							<g>
								<path style="fill:#0B334C;" d="M496.52,284.887c0.649,0.085,1.283,0.104,1.896,0.09c0.613-0.028,1.21-0.115,1.75-0.329
									c0.55-0.192,1.027-0.537,1.422-0.982c0.417-0.433,0.711-0.985,1.037-1.56c-0.06,0.643-0.197,1.327-0.6,1.895
									c-0.36,0.589-0.945,1.061-1.605,1.304C499.09,285.79,497.641,285.555,496.52,284.887z"/>
							</g>
						</g>
					</g>
				</g>
				<g>
					<path style="fill:#0B334C;" d="M482.551,287.421c-1.631-1.323-3.102-3.449-4.278-6.15c1.003,0.441,2.019,0.588,2.875,0.281
						C481.495,283.891,481.963,285.937,482.551,287.421z"/>
					<path style="fill:#0B334C;" d="M515.896,281.084c-2.112,5.388-5.441,8.209-5.441,8.209s-0.053,0-0.161,0.013
						c0.294-0.468,0.548-0.963,0.776-1.471c0.668-1.511,1.177-3.703,1.564-6.284C513.596,281.899,514.773,281.659,515.896,281.084z"
						/>
					<path style="fill:#0B334C;" d="M515.162,260.135c-0.089-0.316-0.182-0.619-0.28-0.898c0.865-3.691,3.034-8.017-1.647-9.803
						c-2.613-0.997-4.836-0.246-6.557,0.974c-0.395,0.244-0.769,0.511-1.124,0.801c1.307-2.218,1.911-4.649-1.594-4.783
						c-1.892-0.073-3.6,0.39-5.082,1.073c-0.564,0.173-1.125,0.358-1.679,0.553c-0.994,0.35-2.033,0.801-2.841,1.472
						c0.194-1.103-0.31-2.08-2.933-1.845c-4.879,0.437-9.184,6.708-10.211,8.314c-2.315,2.372-6.111,7.284-5.642,13.686
						c0.054,0.669,0.12,1.337,0.201,1.992c0.267-0.201,0.562-0.361,0.869-0.481c1.082-0.45,2.224-0.428,3.257-0.082
						c0.292,0.546,0.584,1.092,0.876,1.639c0.409,0.765,0.911,1.605,1.753,1.813c0.567,0.141,1.181-0.056,1.642-0.416
						c0.461-0.36,0.785-0.867,1.039-1.393c0.983-2.047,0.973-4.413,0.943-6.684c0-0.027-0.009-0.057-0.021-0.085
						c1.711,0.972,4.035,0.692,5.391-0.743c0.41,0.879,1.378,1.201,2.308,1.477c1.608,0.477,3.274,0.836,4.95,0.765
						c1.676-0.071,3.374-0.605,4.616-1.732c0.683,0.751,1.673,0.785,2.687,0.745c1.084-0.043,2.164-0.197,3.218-0.458
						c-0.465,1.287-0.756,2.494-0.879,3.858c-0.079,0.883-0.076,1.812,0.318,2.606c0.394,0.794,1.28,1.404,2.147,1.222
						c0.396-0.083,0.743-0.316,1.066-0.56c0.842-0.638,1.757-1.315,2.338-2.185c0.913-0.216,1.901-0.174,2.834,0.214
						c0.16,0.067,0.307,0.134,0.455,0.227C517.518,268.096,516.82,264.322,515.162,260.135z"/>
				</g>
			</g>
		</g>
	</g>
	<g>
		<g>
			<path style="fill:#00A2DD;" d="M420.296,212.677H234.011c-3.2,0-5.794-2.594-5.794-5.794v-101.61c0-3.2,2.594-5.794,5.794-5.794
				h186.285c3.2,0,5.793,2.594,5.793,5.794v101.61C426.089,210.083,423.496,212.677,420.296,212.677z"/>
			<path style="fill:#8EE4FD;" d="M408.546,207.663h-167.72c-2.123,0-3.844-1.721-3.844-3.844v-95.482
				c0-2.123,1.721-3.844,3.844-3.844h167.72c2.123,0,3.844,1.721,3.844,3.844v95.482
				C412.389,205.942,410.668,207.663,408.546,207.663z"/>
			<rect x="415.398" y="140.369" style="fill:#00698F;" width="5.348" height="31.419"/>
		</g>
		<g>
			<defs>
				<path id="SVGID_00000072974211057264368760000000515388995610880408_" d="M408.546,207.663h-167.72
					c-2.123,0-3.844-1.721-3.844-3.844v-95.482c0-2.123,1.721-3.844,3.844-3.844h167.72c2.123,0,3.844,1.721,3.844,3.844v95.482
					C412.389,205.942,410.668,207.663,408.546,207.663z"/>
			</defs>
			<clipPath id="SVGID_00000122715892593162986270000006357543915209687687_">
				<use xlink:href="#SVGID_00000072974211057264368760000000515388995610880408_"  style="overflow:visible;"/>
			</clipPath>
			<g style="clip-path:url(#SVGID_00000122715892593162986270000006357543915209687687_);">
				<g>
					<path style="fill:#2CD0D1;" d="M416.982,213.714c0,0-6.348-76.03-28.695-79.988c-22.348-3.958,22.78,82.497,22.78,82.497
						L416.982,213.714z"/>
					<path style="fill:#2CD0D1;" d="M413.167,214.09c0,0-27.716-70.069-46.495-61.282c-18.778,8.787,43.438,65.436,43.438,65.436
						L413.167,214.09z"/>
					<path style="fill:#2CD0D1;" d="M409.159,216.412c0,0-40.755-46.055-56.255-35.28c-15.5,10.775,51.14,38.096,51.14,38.096
						L409.159,216.412z"/>
				</g>
				<g>
					
						<line style="fill:none;stroke:#0B334C;stroke-width:1.0027;stroke-linecap:round;stroke-linejoin:round;stroke-miterlimit:10;" x1="368.938" y1="158.232" x2="403.365" y2="203.355"/>
					
						<line style="fill:none;stroke:#0B334C;stroke-width:1.0027;stroke-linecap:round;stroke-linejoin:round;stroke-miterlimit:10;" x1="356.236" y1="184.971" x2="386.318" y2="205.026"/>
					
						<line style="fill:none;stroke:#0B334C;stroke-width:1.0027;stroke-linecap:round;stroke-linejoin:round;stroke-miterlimit:10;" x1="388.324" y1="138.846" x2="408.713" y2="188.648"/>
				</g>
			</g>
			<g style="clip-path:url(#SVGID_00000122715892593162986270000006357543915209687687_);">
				<g>
					<g>
						<path style="fill:#FFCBA1;" d="M317.217,166.472v-23.274h-18.293v23.274c0,2.801-2.27,5.071-5.071,5.071l0,0
							c16.119,23.908,28.616,0,28.616,0h-0.181C319.488,171.543,317.217,169.273,317.217,166.472z"/>
						<path style="fill:#0B334C;" d="M317.225,155.719v3.6c-1.618,1.18-3.282,2.117-4.734,2.813
							c-2.707,1.316-5.868,1.316-8.591,0.015c-1.528-0.726-3.282-1.709-4.976-2.995v-3.6c1.694,1.286,3.448,2.269,4.976,3.01
							c2.722,1.301,5.883,1.286,8.591-0.015C313.943,157.852,315.607,156.914,317.225,155.719z"/>
					</g>
					<g>
						<path style="fill:#00A2DD;" d="M298.34,167.309l10.373,2.444l9.181-2.802c0,0,2.265,4.769,5.485,4.173
							c3.219-0.596,14.427,0.358,17.646,6.796c3.219,6.438,13.831,33.385,13.831,33.385h-93.834c0,0,12.042-32.311,17.169-36.842
							c5.127-4.531,17.765-1.908,18.719-3.935C297.863,168.501,298.34,167.309,298.34,167.309z"/>
						<path style="fill:#40B9E5;" d="M306.806,178.159l2.921-9.956l-9.084-4.661c-1.167-0.599-2.586,0.062-2.879,1.341l-1.434,6.126
							l2.725-0.72L306.806,178.159z"/>
						<path style="fill:#40B9E5;" d="M310.755,178.159l-2.921-9.956l9.084-4.661c1.167-0.599,2.586,0.062,2.879,1.341l1.331,5.824
							l-2.623-0.417L310.755,178.159z"/>
						<g>
							
								<path style="fill:none;stroke:#0B334C;stroke-width:0.6679;stroke-linecap:round;stroke-linejoin:round;stroke-miterlimit:10;" d="
								M282.17,173.754c0,0,7.346,1.113,7.346,8.46"/>
							
								<path style="fill:none;stroke:#0B334C;stroke-width:0.6679;stroke-linecap:round;stroke-linejoin:round;stroke-miterlimit:10;" d="
								M329.143,172.641c0,0-4.675,3.339-3.785,8.237"/>
							
								<line style="fill:none;stroke:#0B334C;stroke-width:0.6679;stroke-linecap:round;stroke-linejoin:round;stroke-miterlimit:10;" x1="288.626" y1="193.567" x2="283.951" y2="207.592"/>
							
								<line style="fill:none;stroke:#0B334C;stroke-width:0.6679;stroke-linecap:round;stroke-linejoin:round;stroke-miterlimit:10;" x1="327.585" y1="191.786" x2="334.708" y2="207.592"/>
							
								<line style="fill:none;stroke:#0B334C;stroke-width:0.6679;stroke-linecap:round;stroke-linejoin:round;stroke-miterlimit:10;" x1="308.884" y1="176.481" x2="308.884" y2="205.366"/>
						</g>
					</g>
				</g>
				<g>
					<g>
						<path style="fill:#FFCBA1;" d="M332.59,137.26c-1.04,2.52-5.01,5.49-7.56,4.55c-0.4,2.76-0.94,5.13-1.68,6.73
							c-2.27,5.07-7.23,8.26-10.85,10.01c-2.72,1.3-5.87,1.3-8.59,0c-3.64-1.73-8.62-4.91-10.9-9.98c-0.73-1.62-1.29-3.98-1.71-6.76
							c-2.56,0.94-6.53-2.03-7.56-4.55c-1.06-2.57,0.17-5.49,2.74-6.55c0.28-0.11,0.59-0.21,0.89-0.27
							c0.21-0.05,0.43-0.07,0.64-0.09c0.79-0.05,1.57,0.08,2.29,0.39c-0.01-0.42-0.04-0.85-0.06-1.26
							c-0.43-10.17,7.72-18.63,17.91-18.65c10.16,0,18.34,8.44,17.93,18.61c-0.02,0.43-0.05,0.87-0.06,1.3
							c0.48-0.21,1-0.33,1.53-0.37c0.76-0.07,1.54,0.04,2.29,0.34c0.05,0.02,0.09,0.04,0.13,0.07
							C332.45,131.87,333.62,134.73,332.59,137.26z"/>
						<g>
							<g>
								<g>
									<path style="fill:#0B334C;" d="M308.297,134.722c0.378,0.774,0.459,1.657,0.417,2.481c-0.03,0.833-0.188,1.625-0.346,2.379
										c-0.154,0.761-0.372,1.493-0.353,2.039c-0.006,0.551,0.466,1.187,0.956,1.893c-0.425-0.08-0.818-0.225-1.208-0.462
										c-0.374-0.243-0.747-0.622-0.927-1.125c-0.197-0.49-0.203-0.992-0.178-1.431c0.031-0.441,0.102-0.837,0.185-1.241
										c0.175-0.8,0.416-1.546,0.679-2.275L308.297,134.722z"/>
								</g>
								<g>
									<path style="fill:#F67846;" d="M303.505,130.839c-0.427-0.018-0.915-0.064-1.356-0.063
										c-0.449-0.003-0.887,0.003-1.315,0.068c-0.433,0.061-0.821,0.23-1.212,0.424c-0.395,0.199-0.723,0.516-1.083,0.85
										l-0.034,0.032c-0.133,0.124-0.342,0.116-0.465-0.018c-0.09-0.097-0.11-0.234-0.063-0.35
										c0.211-0.511,0.499-1.042,0.957-1.43c0.431-0.411,0.978-0.718,1.549-0.887c0.568-0.183,1.162-0.262,1.738-0.218
										c0.583,0.054,1.118,0.164,1.672,0.447c0.299,0.152,0.417,0.518,0.265,0.816c-0.111,0.218-0.336,0.34-0.565,0.331
										L303.505,130.839z"/>
									<path style="fill:#F67846;" d="M312.432,129.696c0.554-0.283,1.09-0.393,1.672-0.447c0.576-0.044,1.17,0.035,1.738,0.218
										c0.57,0.168,1.117,0.476,1.548,0.887c0.458,0.388,0.746,0.919,0.957,1.43c0.069,0.168-0.011,0.361-0.179,0.43
										c-0.122,0.051-0.258,0.022-0.349-0.063l-0.034-0.032c-0.36-0.334-0.688-0.651-1.083-0.85
										c-0.392-0.194-0.78-0.363-1.212-0.424c-0.428-0.065-0.866-0.071-1.315-0.068c-0.441-0.001-0.929,0.045-1.356,0.063
										l-0.086,0.003c-0.335,0.014-0.618-0.246-0.632-0.581C312.091,130.017,312.227,129.8,312.432,129.696z"/>
								</g>
								<g>
									<path style="fill:#0B334C;" d="M316.228,137.055c0,1.427-0.72,2.584-1.607,2.584c-0.887,0-1.607-1.157-1.607-2.584
										c0-1.427,0.72-2.584,1.607-2.584C315.508,134.472,316.228,135.628,316.228,137.055z"/>
									<path style="fill:#0B334C;" d="M303.309,137.055c0,1.427-0.719,2.584-1.607,2.584s-1.607-1.157-1.607-2.584
										c0-1.427,0.719-2.584,1.607-2.584S303.309,135.628,303.309,137.055z"/>
								</g>
								<g>
									<path style="fill:#F67846;" d="M308.876,145.138c0.184-0.658-0.297-1.323-0.98-1.359c-1.171-0.061-3.127,0.177-5.646,1.72
										c-2.156,1.322-3.81,1.676-4.852,1.73c-0.277,0.014-0.346,0.39-0.096,0.509
										C300.101,149.076,307.056,151.636,308.876,145.138z"/>
									<path style="fill:#F67846;" d="M307.854,145.138c-0.184-0.658,0.297-1.323,0.98-1.359c1.171-0.061,3.127,0.177,5.646,1.72
										c2.156,1.322,3.81,1.676,4.852,1.73c0.277,0.014,0.347,0.39,0.096,0.509C316.628,149.076,309.673,151.636,307.854,145.138z
										"/>
								</g>
							</g>
						</g>
					</g>
					<g>
						<path style="fill:#F67846;" d="M326.75,113.75c-8.255-8.87-31.37-6-36.63,0.25c-3.46,4.13-2.89,11.69-2.11,16.35
							c0.79-0.05,1.57,0.08,2.29,0.39c0-0.007-0.001-0.013-0.001-0.02c1.09,0.847,2.611,2.212,3.076,3.529
							c0.75,2.125,1.25-8.5,4.375-10.375c0,0,6.25,4.125,10.625,3.625s11.375-3.75,11.375-3.75s3,6.125,3,10
							c0,0,1.961-1.996,3.359-3.04c0.456-0.188,0.943-0.303,1.441-0.34C329.45,126.37,331.469,118.821,326.75,113.75z"/>
						<path style="fill:#F67846;" d="M291.3,141.81c0,0-2.8,7.815-0.55,12.19s12,12,20.75,10.375s14.375-7.75,14.375-11
							s-0.845-11.565-0.845-11.565l-2.38,4.399c-1.629,3.011-4.281,5.34-7.478,6.566l-0.29,0.114
							c-3.999,1.572-8.441,1.592-12.453,0.055h0c-3.414-1.01-6.33-3.254-8.181-6.294L291.3,141.81z"/>
					</g>
				</g>
			</g>
		</g>
	</g>
	<g>
		<g>
			
				<ellipse transform="matrix(0.921 -0.3895 0.3895 0.921 -60.2743 100.6034)" style="fill:#F64652;" cx="217.978" cy="198.954" rx="21.726" ry="21.726"/>
			<g>
				<path style="fill:#FFFFFF;" d="M210.404,198.124c-0.015,1.355,0.004,2.584-0.052,3.81c-0.062,1.362-0.627,1.93-1.993,1.965
					c-1.64,0.042-3.283,0.028-4.923-0.004c-1.166-0.022-1.828-0.672-1.885-1.828c-0.055-1.105-0.077-2.218-0.005-3.32
					c0.111-1.716,1.345-2.802,2.654-3.474c8.66-4.448,17.512-4.874,26.407-0.739c3.25,1.511,4.545,4.839,3.488,8.171
					c-0.265,0.835-0.89,1.284-1.75,1.294c-1.722,0.02-3.446,0.022-5.166-0.04c-1.1-0.039-1.775-0.784-1.819-1.927
					c-0.04-1.065-0.034-2.134-0.002-3.2c0.019-0.632-0.184-0.949-0.845-1.098C219.808,196.671,215.15,196.892,210.404,198.124z"/>
			</g>
		</g>
		<g>
			<path style="fill:#76D7FA;" d="M252.107,140.821l-2.894-10.8v-15.315c0-0.462-0.374-0.836-0.835-0.836h-66.849
				c-0.462,0-0.836,0.374-0.836,0.836v22.728c0,0.462,0.374,0.836,0.836,0.836h57.985l11.944,3.2
				C251.852,141.576,252.213,141.215,252.107,140.821z"/>
			<g>
				<rect x="186.877" y="119.553" style="fill:#F3F8FA;" width="54.482" height="2.841"/>
				<rect x="186.877" y="126.405" style="fill:#F3F8FA;" width="16.712" height="2.841"/>
			</g>
		</g>
		<g>
			
				<ellipse transform="matrix(0.1614 -0.9869 0.9869 0.1614 295.4184 771.1905)" style="fill:#FCB13A;" cx="601.496" cy="211.764" rx="24.531" ry="24.531"/>
			<g>
				<g>
					<path style="fill:#FFFFFF;" d="M601.496,214.395L601.496,214.395c-2.585,0-4.681-2.096-4.681-4.681v-8.254
						c0-2.585,2.096-4.681,4.681-4.681l0,0c2.585,0,4.681,2.096,4.681,4.681v8.254C606.177,212.3,604.081,214.395,601.496,214.395z"
						/>
				</g>
				<g>
					<g>
						<path style="fill:#FFFFFF;" d="M601.496,219.935c-5.682,0-10.304-4.622-10.304-10.304v-1.274c0-0.612,0.496-1.108,1.108-1.108
							c0.612,0,1.108,0.496,1.108,1.108v1.274c0,4.46,3.628,8.088,8.088,8.088c4.46,0,8.088-3.628,8.088-8.088v-1.274
							c0-0.612,0.496-1.108,1.108-1.108c0.612,0,1.108,0.496,1.108,1.108v1.274C611.8,215.313,607.178,219.935,601.496,219.935z"/>
					</g>
					<g>
						<path style="fill:#FFFFFF;" d="M601.496,225.752c-0.612,0-1.108-0.496-1.108-1.108v-5.595c0-0.612,0.496-1.108,1.108-1.108
							c0.612,0,1.108,0.496,1.108,1.108v5.595C602.604,225.256,602.108,225.752,601.496,225.752z"/>
					</g>
					<g>
						<path style="fill:#FFFFFF;" d="M609.695,226.749h-16.398c-0.612,0-1.108-0.496-1.108-1.108c0-0.612,0.496-1.108,1.108-1.108
							h16.398c0.612,0,1.108,0.496,1.108,1.108C610.803,226.253,610.307,226.749,609.695,226.749z"/>
					</g>
				</g>
			</g>
		</g>
	</g>
	<g>
		<g>
			<polygon style="fill:#0B334C;" points="463.187,447 435.251,447 433.572,397.388 464.866,397.388 			"/>
			<polygon style="fill:#FCB13A;" points="464.255,433.414 434.183,433.414 433.114,414.79 465.324,414.79 			"/>
			<rect x="432.189" y="393.549" style="fill:#FCB13A;" width="34.059" height="5.02"/>
			<path style="fill:#FCB13A;" d="M464.28,394.336h-30.121l0,0c0-2.773,2.247-5.02,5.02-5.02h25.101V394.336z"/>
		</g>
		<g>
			<g>
				<path style="fill:#F64652;" d="M186.705,392.184v26.405c0,15.683-12.715,28.411-28.411,28.411
					c-15.683,0-28.411-12.728-28.411-28.411v-26.405H186.705z"/>
				
					<line style="fill:none;stroke:#0B334C;stroke-width:1.0027;stroke-linecap:round;stroke-linejoin:round;stroke-miterlimit:10;" x1="131.726" y1="397.472" x2="182.364" y2="397.472"/>
			</g>
			<g>
				<g>
					<path style="fill:#24AAAB;" d="M180.475,372.21l-1.123,0.722c-0.08-0.12-7.581-11.926-14.038-10.896
						c-5.041,0.802-7.22,19.894-7.835,30.149h-1.324c0.481-8.423,2.366-30.43,8.944-31.472
						C172.439,359.522,180.154,371.702,180.475,372.21z"/>
					<g>
						<path style="fill:#2CD0D1;" d="M178.706,371.177c-3.305-2.451-7.877-3.085-11.724-1.626c-1.776,0.674-3.442,1.817-4.37,3.475
							c-1.358,2.427-0.9,5.509,0.297,8.02c3.402,7.139,11.468,10.465,18.306,14.437c4.454,2.587,8.915,5.764,13.784,7.033
							c2.759,0.719,5.638-0.539,6.913-3.089c2.799-5.599,2.877-12.541,1.73-18.828c-0.717-3.928-1.946-7.778-3.82-11.305
							c-1.72-3.236-4.072-6.265-7.29-8.017c-3.218-1.753-7.412-2.009-10.455,0.032C179.036,363.352,176.589,368.187,178.706,371.177
							z"/>
						<g>
							
								<path style="fill:none;stroke:#0B334C;stroke-width:1.0027;stroke-linecap:round;stroke-linejoin:round;stroke-miterlimit:10;" d="
								M180.86,373.406c0,0,15.542,14.54,16.545,24.901"/>
							
								<line style="fill:none;stroke:#0B334C;stroke-width:1.0027;stroke-linecap:round;stroke-linejoin:round;stroke-miterlimit:10;" x1="164.315" y1="378.086" x2="184.704" y2="377.918"/>
							
								<line style="fill:none;stroke:#0B334C;stroke-width:1.0027;stroke-linecap:round;stroke-linejoin:round;stroke-miterlimit:10;" x1="201.583" y1="381.595" x2="188.046" y2="380.927"/>
							
								<line style="fill:none;stroke:#0B334C;stroke-width:1.0027;stroke-linecap:round;stroke-linejoin:round;stroke-miterlimit:10;" x1="186.71" y1="379.924" x2="166.154" y2="381.595"/>
						</g>
					</g>
				</g>
				<g>
					<path style="fill:#2CD0D1;" d="M135.378,361.488c-1.459-1.919-3.908-3.04-6.314-2.889c-3.38,0.211-6.208,2.722-8.067,5.552
						c-1.859,2.831-3.025,6.065-4.827,8.932c-1.92,3.054-4.52,5.624-7.273,7.956c-0.806,0.683-1.715,1.572-1.509,2.609
						c0.071,0.358,0.272,0.675,0.491,0.967c2.65,3.54,7.665,4.057,12.082,4.272c2.391,0.116,4.811,0.23,7.157-0.247
						c2.301-0.468,4.449-1.488,6.54-2.557c4.257-2.177,8.653-4.875,10.576-9.253c1.07-2.434,1.169-5.509-0.532-7.552
						c-1.714-2.059-3.873-0.659-5.702-1.796C136.273,366.407,136.63,363.134,135.378,361.488z"/>
					<path style="fill:#24AAAB;" d="M152.211,392.184h-1.417l-6.03-16.993l-2.447-6.912l-0.04-0.12
						c-0.254-0.722-0.829-1.257-1.564-1.457c-0.749-0.201-1.511-0.04-2.099,0.455l-0.468,0.401c-0.054-0.027-0.094-0.053-0.147-0.08
						c-0.348-0.214-0.602-0.508-0.816-0.869l0.575-0.468c0.909-0.775,2.152-1.043,3.302-0.735c1.15,0.321,2.086,1.176,2.474,2.313
						L152.211,392.184z"/>
					
						<path style="fill:none;stroke:#0B334C;stroke-width:1.0027;stroke-linecap:round;stroke-linejoin:round;stroke-miterlimit:10;" d="
						M136.239,368.56c0,0-7.855,14.372-26.739,15.542"/>
				</g>
				<g>
					<path style="fill:#24AAAB;" d="M153.454,330.296c-6.137,5.401-1.792,40.871,1.872,61.888h-1.35
						c-2.313-13.624-8.864-56.313-1.417-62.904c0.655-0.575,1.444-0.829,2.38-0.762c2.059,0.147,4.385,1.992,5.883,3.396
						c-0.187,0.455-0.415,0.856-0.722,1.177c-1.444-1.404-3.583-3.115-5.254-3.235C154.283,329.801,153.829,329.948,153.454,330.296
						z"/>
					<g>
						<path style="fill:#2CD0D1;" d="M195.823,352.676c-0.08,0.415-0.321,0.789-0.588,1.136c-3.128,4.198-9.065,4.813-14.292,5.067
							c-2.834,0.134-5.695,0.267-8.476-0.294c-2.727-0.561-5.268-1.765-7.741-3.035c-5.04-2.567-10.241-5.762-12.528-10.95
							c-1.257-2.888-1.377-6.524,0.628-8.944c2.032-2.433,4.586-0.775,6.752-2.126c0.201-0.12,0.374-0.267,0.521-0.441
							c0.307-0.321,0.535-0.722,0.722-1.177c0.722-1.698,0.802-4.078,1.858-5.482c1.738-2.259,4.626-3.596,7.474-3.409
							c4.011,0.241,7.354,3.222,9.559,6.564c2.193,3.356,3.583,7.18,5.709,10.576c2.273,3.623,5.361,6.658,8.61,9.426
							C194.994,350.39,196.064,351.447,195.823,352.676z"/>
						<g>
							
								<path style="fill:none;stroke:#0B334C;stroke-width:1.0027;stroke-linecap:round;stroke-linejoin:round;stroke-miterlimit:10;" d="
								M161.641,333.13c0,0,17.882,20.055,32.589,18.216"/>
							
								<line style="fill:none;stroke:#0B334C;stroke-width:1.0027;stroke-linecap:round;stroke-linejoin:round;stroke-miterlimit:10;" x1="154.622" y1="343.659" x2="163.312" y2="335.135"/>
							
								<line style="fill:none;stroke:#0B334C;stroke-width:1.0027;stroke-linecap:round;stroke-linejoin:round;stroke-miterlimit:10;" x1="155.458" y1="347.168" x2="164.984" y2="336.807"/>
							
								<line style="fill:none;stroke:#0B334C;stroke-width:1.0027;stroke-linecap:round;stroke-linejoin:round;stroke-miterlimit:10;" x1="183.701" y1="340.65" x2="169.468" y2="340.483"/>
							
								<line style="fill:none;stroke:#0B334C;stroke-width:1.0027;stroke-linecap:round;stroke-linejoin:round;stroke-miterlimit:10;" x1="185.707" y1="344.494" x2="173.563" y2="343.631"/>
						</g>
					</g>
				</g>
				<g>
					<path style="fill:#24AAAB;" d="M140.967,340.924c1.364,2.594,9.666,37.529,12.902,51.26h-1.377
						c-4.519-19.212-11.565-48.452-12.701-50.645c-1.337-2.553-5-0.896-5.04-0.869l-0.562-1.217
						C135.86,338.678,139.443,337.983,140.967,340.924z"/>
					<g>
						<g>
							<path style="fill:#2CD0D1;" d="M125.772,335.579c-4.22-0.049-7.965,2.663-10.947,5.65
								c-4.085,4.092-10.059,9.197-11.44,14.812c4.564,0.051,11.732-0.474,16.222-1.295c3.664-0.671,7.369-1.671,10.392-3.848
								c2.561-1.845,5.975-6.01,4.799-9.434C133.647,338.11,129.104,335.618,125.772,335.579z"/>
							<path style="fill:#64E4E6;" d="M129.987,339.729c-3.309,1.362-5.692,4.245-8.333,6.659
								c-4.826,4.412-10.885,7.459-17.305,8.702c-0.178,0.034-0.363,0.07-0.51,0.176c-0.54,0.39-0.146,1.247,0.329,1.713
								c3.122,3.056,8.058,3.23,12.364,2.49c6.203-1.066,12.141-3.647,17.152-7.456c2.48-1.885,6.794-5.768,5.622-9.368
								C138.161,339.128,132.879,338.539,129.987,339.729z"/>
						</g>
						<g>
							
								<path style="fill:none;stroke:#0B334C;stroke-width:1.0027;stroke-linecap:round;stroke-linejoin:round;stroke-miterlimit:10;" d="
								M132.228,338.979c0,0-2.59-0.501-7.186,3.76c-4.596,4.262-8.022,9.442-20.138,12.534"/>
							
								<line style="fill:none;stroke:#0B334C;stroke-width:1.0027;stroke-linecap:round;stroke-linejoin:round;stroke-miterlimit:10;" x1="118.106" y1="339.063" x2="124.206" y2="343.241"/>
							
								<line style="fill:none;stroke:#0B334C;stroke-width:1.0027;stroke-linecap:round;stroke-linejoin:round;stroke-miterlimit:10;" x1="116.769" y1="341.319" x2="122.953" y2="344.745"/>
						</g>
					</g>
				</g>
			</g>
		</g>
		<g>
			<g>
				<path style="fill:#2CD0D1;" d="M633.27,339.401c-4.645-0.772-8.921,5.547-11.906,11.629
					c-2.077-10.89-10.05-33.189-33.967-23.061c-15.348,6.5-16.872,30.307-14.885,51.366c-2.943-5.487-7.313-10.999-12.71-9.988
					c-9.906,1.856-6.665,35.741,14.209,21.925c2.08,13.448,4.889,23.62,4.889,23.62l30.724-1.447c0,0,9.593-26.711,11.877-48.924
					c4.608,2.634,11.687,5.171,15.386-1.139C642.655,353.54,641.999,340.852,633.27,339.401z"/>
				<g>
					
						<path style="fill:none;stroke:#0B334C;stroke-width:1.0027;stroke-linecap:round;stroke-linejoin:round;stroke-miterlimit:10;" d="
						M583.122,412.239c0,0-13.593-54.147,0-80.664"/>
					
						<path style="fill:none;stroke:#0B334C;stroke-width:1.0027;stroke-linecap:round;stroke-linejoin:round;stroke-miterlimit:10;" d="
						M608.748,411.793c0,0,18.495-60.164,0-82.224"/>
					
						<line style="fill:none;stroke:#0B334C;stroke-width:1.0027;stroke-linecap:round;stroke-linejoin:round;stroke-miterlimit:10;" x1="596.269" y1="326.895" x2="596.269" y2="412.684"/>
					
						<path style="fill:none;stroke:#0B334C;stroke-width:1.0027;stroke-linecap:round;stroke-linejoin:round;stroke-miterlimit:10;" d="
						M554.823,377.477c0,0,7.799,16.267,18.94,10.919"/>
					
						<path style="fill:none;stroke:#0B334C;stroke-width:1.0027;stroke-linecap:round;stroke-linejoin:round;stroke-miterlimit:10;" d="
						M639.275,349.178c0,0-1.337,14.707-16.935,12.033"/>
				</g>
			</g>
			<g>
				<g>
					<path style="fill:#FCB13A;" d="M594.152,447L594.152,447c-14.276,0-25.848-11.573-25.848-25.848v-8.467h51.696v8.467
						C620.001,435.427,608.428,447,594.152,447z"/>
					<rect x="564.07" y="412.684" style="fill:#FCB13A;" width="60.164" height="7.131"/>
				</g>
				<polygon style="fill:#0B334C;" points="568.416,419.843 620.056,419.843 568.416,422.935 				"/>
			</g>
		</g>
	</g>
</g>
<g id="DESIGNED_BY_FREEPIK">
	<g id="XMLID_258_">
		<g id="XMLID_287_">
			<g id="XMLID_306_">
				<path id="XMLID_314_" style="fill:#9EB7C7;" d="M385.104,465.465c-0.433,0.443-0.804,0.932-1.108,1.453l-0.465-0.241
					c-0.067-0.297-0.35-0.502-0.659-0.466c-0.331,0.039-0.567,0.339-0.529,0.67c0.039,0.331,0.339,0.567,0.67,0.528
					c0.065-0.007,0.127-0.025,0.184-0.052l0.451,0.234c-0.251,0.554-0.433,1.139-0.539,1.743l0.747,0.132
					c0.229-1.306,0.85-2.507,1.792-3.473L385.104,465.465z"/>
				<path id="XMLID_313_" style="fill:#9EB7C7;" d="M390.591,463.164c-0.171,0-0.341,0.006-0.509,0.017l-0.074-0.626
					c0.188-0.149,0.296-0.389,0.266-0.645c-0.046-0.393-0.402-0.674-0.795-0.628c-0.394,0.046-0.675,0.402-0.628,0.796
					c0.03,0.254,0.189,0.461,0.404,0.563l0.073,0.624c-0.714,0.116-1.402,0.332-2.06,0.646l0.327,0.685
					c0.935-0.447,1.941-0.674,2.995-0.674c0.497,0,0.993,0.053,1.476,0.158l0.16-0.741
					C391.692,463.222,391.142,463.164,390.591,463.164z"/>
				<path id="XMLID_312_" style="fill:#9EB7C7;" d="M397.194,465.711c0.331-0.04,0.566-0.341,0.525-0.672
					c-0.04-0.331-0.341-0.566-0.672-0.525c-0.31,0.038-0.535,0.304-0.53,0.608l-0.416,0.363c-0.418-0.43-0.89-0.813-1.407-1.14
					l-0.404,0.642c1.135,0.715,2.021,1.727,2.564,2.925l0.69-0.313c-0.251-0.554-0.567-1.071-0.942-1.545l0.402-0.351
					C397.065,465.715,397.128,465.719,397.194,465.711z"/>
				<path id="XMLID_311_" style="fill:#9EB7C7;" d="M390.044,473.372c-0.386,0.023-0.775,0.035-1.157,0.035
					c-0.88,0-1.733-0.061-2.479-0.18c-0.391-0.062-0.846-0.154-1.271-0.292c1.047,1.861,3.069,3.125,5.389,3.125
					c2.855,0,5.263-1.916,5.949-4.503c-0.682,0.449-1.505,0.825-2.458,1.122C392.838,473.047,391.463,473.287,390.044,473.372z"/>
				<path id="XMLID_307_" style="fill:#9EB7C7;" d="M390.591,464.68c-3.351,0-6.079,2.666-6.079,5.943
					c0,0.425,0.046,0.849,0.137,1.261c0.674,0.483,2.706,0.891,5.348,0.731c2.88-0.174,5.297-0.958,6.672-2.159
					c-0.005-0.194-0.02-0.39-0.045-0.581C396.244,466.914,393.65,464.68,390.591,464.68z M388.432,471.195
					c-1.02,0-1.85-0.83-1.85-1.85c0-1.021,0.83-1.851,1.85-1.851c1.02,0,1.85,0.83,1.85,1.851
					C390.282,470.365,389.452,471.195,388.432,471.195z M393.169,470.287c-0.75,0-1.36-0.61-1.36-1.36s0.61-1.36,1.36-1.36
					s1.36,0.61,1.36,1.36S393.919,470.287,393.169,470.287z"/>
			</g>
			<path id="XMLID_304_" style="fill:#9EB7C7;" d="M406.595,466.547c-0.295-0.116-0.806-0.31-1.383-0.238
				c-0.551,0.069-0.844,0.341-0.844,1.007v0.866h2.229v1.717h-2.229v5.455h-1.932v-5.455h-1.339v-1.717h1.339v-0.889
				c0-1.68,0.896-2.782,2.568-2.782c0.643,0,1.157,0.121,1.59,0.308V466.547z"/>
			<path id="XMLID_302_" style="fill:#9EB7C7;" d="M411.297,469.878c-0.177-0.029-0.357-0.046-0.525-0.046
				c-0.896,0-1.51,0.548-1.51,1.613v3.908h-1.933v-7.172h1.873v0.784c0.451-0.673,1.14-0.977,2.021-0.977
				c0.414,0,0.848,0.128,1.095,0.337L411.297,469.878z"/>
			<path id="XMLID_299_" style="fill:#9EB7C7;" d="M418.965,471.757c0,0.222-0.016,0.488-0.037,0.651h-5.085
				c0.207,1.036,0.933,1.487,1.843,1.487c0.622,0,1.295-0.252,1.813-0.689l1.133,1.243c-0.814,0.748-1.851,1.089-3.057,1.089
				c-2.198,0-3.724-1.496-3.724-3.753c0-2.258,1.48-3.797,3.627-3.797C417.543,467.99,418.958,469.522,418.965,471.757z
				 M413.851,471.091h3.175c-0.178-0.918-0.732-1.437-1.561-1.437C414.554,469.655,414.021,470.203,413.851,471.091z"/>
			<path id="XMLID_296_" style="fill:#9EB7C7;" d="M426.619,471.757c0,0.222-0.016,0.488-0.037,0.651h-5.085
				c0.207,1.036,0.933,1.487,1.843,1.487c0.622,0,1.296-0.252,1.814-0.689l1.133,1.243c-0.815,0.748-1.851,1.089-3.058,1.089
				c-2.198,0-3.723-1.496-3.723-3.753c0-2.258,1.48-3.797,3.627-3.797C425.197,467.99,426.611,469.522,426.619,471.757z
				 M421.504,471.091h3.175c-0.178-0.918-0.733-1.437-1.561-1.437C422.208,469.655,421.674,470.203,421.504,471.091z"/>
			<path id="XMLID_293_" style="fill:#9EB7C7;" d="M434.964,471.764c0,2.154-1.495,3.775-3.472,3.775
				c-0.962,0-1.644-0.378-2.109-0.933v3.708h-1.925v-10.133h1.888v0.792c0.467-0.585,1.154-0.984,2.139-0.984
				C433.469,467.99,434.964,469.611,434.964,471.764z M429.287,471.764c0,1.133,0.748,1.977,1.844,1.977
				c1.14,0,1.85-0.881,1.85-1.977c0-1.095-0.71-1.976-1.85-1.976C430.035,469.789,429.287,470.632,429.287,471.764z"/>
			<path id="XMLID_290_" style="fill:#9EB7C7;" d="M438.068,465.836c0,0.696-0.541,1.229-1.236,1.229
				c-0.696,0-1.229-0.533-1.229-1.229c0-0.695,0.532-1.243,1.229-1.243C437.527,464.592,438.068,465.14,438.068,465.836z
				 M437.808,475.354h-1.932v-7.172h1.932V475.354z"/>
			<path id="XMLID_288_" style="fill:#9EB7C7;" d="M441.032,470.736l2.702-2.554h2.368l-3.478,3.375l3.501,3.797h-2.376
				l-2.717-2.901v2.901H439.1v-10.658h1.932V470.736z"/>
		</g>
		<g id="XMLID_259_">
			<path id="XMLID_284_" style="fill:#9EB7C7;" d="M309.412,475.29v-1.055c-0.527,0.718-1.391,1.23-2.387,1.23
				c-1.846,0-3.149-1.406-3.149-3.706c0-2.256,1.289-3.721,3.149-3.721c0.952,0,1.816,0.469,2.387,1.245v-3.765h1.099v9.771H309.412
				z M309.412,473.371v-3.208c-0.395-0.615-1.245-1.143-2.124-1.143c-1.42,0-2.27,1.172-2.27,2.739c0,1.567,0.85,2.725,2.27,2.725
				C308.167,474.484,309.017,473.986,309.412,473.371z"/>
			<path id="XMLID_281_" style="fill:#9EB7C7;" d="M311.932,471.745c0-2.051,1.465-3.706,3.486-3.706
				c2.139,0,3.398,1.67,3.398,3.794v0.278h-5.727c0.088,1.333,1.025,2.446,2.549,2.446c0.806,0,1.626-0.322,2.182-0.894l0.527,0.718
				c-0.703,0.703-1.655,1.084-2.812,1.084C313.44,475.465,311.932,473.957,311.932,471.745z M315.403,468.947
				c-1.509,0-2.256,1.274-2.314,2.358h4.644C317.718,470.25,317.015,468.947,315.403,468.947z"/>
			<path id="XMLID_279_" style="fill:#9EB7C7;" d="M319.607,474.352l0.571-0.791c0.469,0.542,1.362,1.011,2.329,1.011
				c1.084,0,1.67-0.513,1.67-1.216c0-1.714-4.38-0.659-4.38-3.281c0-1.099,0.952-2.036,2.636-2.036c1.202,0,2.051,0.454,2.623,1.025
				l-0.513,0.762c-0.424-0.513-1.201-0.894-2.109-0.894c-0.966,0-1.567,0.483-1.567,1.113c0,1.553,4.379,0.527,4.379,3.281
				c0,1.187-0.952,2.139-2.783,2.139C321.306,475.465,320.325,475.114,319.607,474.352z"/>
			<path id="XMLID_276_" style="fill:#9EB7C7;" d="M326.477,466.471c0-0.41,0.337-0.747,0.732-0.747c0.41,0,0.747,0.337,0.747,0.747
				c0,0.41-0.337,0.732-0.747,0.732C326.814,467.204,326.477,466.881,326.477,466.471z M326.667,475.29v-7.075h1.099v7.075H326.667z
				"/>
			<path id="XMLID_273_" style="fill:#9EB7C7;" d="M329.582,477.106l0.556-0.82c0.586,0.703,1.289,0.967,2.3,0.967
				c1.172,0,2.271-0.571,2.271-2.124v-1.011c-0.513,0.718-1.377,1.26-2.373,1.26c-1.846,0-3.149-1.377-3.149-3.662
				c0-2.271,1.289-3.677,3.149-3.677c0.952,0,1.802,0.469,2.373,1.245v-1.069h1.099v6.87c0,2.344-1.641,3.076-3.369,3.076
				C331.237,478.161,330.417,477.925,329.582,477.106z M334.708,473.253v-3.091c-0.381-0.615-1.23-1.143-2.109-1.143
				c-1.421,0-2.27,1.128-2.27,2.695c0,1.553,0.849,2.695,2.27,2.695C333.478,474.411,334.328,473.869,334.708,473.253z"/>
			<path id="XMLID_271_" style="fill:#9EB7C7;" d="M342.413,475.29v-4.629c0-1.245-0.63-1.641-1.582-1.641
				c-0.864,0-1.685,0.527-2.094,1.099v5.171h-1.099v-7.075h1.099v1.025c0.497-0.586,1.464-1.201,2.519-1.201
				c1.479,0,2.256,0.747,2.256,2.285v4.966H342.413z"/>
			<path id="XMLID_268_" style="fill:#9EB7C7;" d="M344.932,471.745c0-2.051,1.465-3.706,3.486-3.706
				c2.139,0,3.398,1.67,3.398,3.794v0.278h-5.727c0.088,1.333,1.025,2.446,2.548,2.446c0.806,0,1.626-0.322,2.183-0.894l0.527,0.718
				c-0.703,0.703-1.655,1.084-2.813,1.084C346.441,475.465,344.932,473.957,344.932,471.745z M348.404,468.947
				c-1.509,0-2.256,1.274-2.314,2.358h4.643C350.718,470.25,350.015,468.947,348.404,468.947z"/>
			<path id="XMLID_265_" style="fill:#9EB7C7;" d="M358.35,475.29v-1.055c-0.527,0.718-1.392,1.23-2.388,1.23
				c-1.845,0-3.149-1.406-3.149-3.706c0-2.256,1.289-3.721,3.149-3.721c0.952,0,1.817,0.469,2.388,1.245v-3.765h1.098v9.771H358.35z
				 M358.35,473.371v-3.208c-0.396-0.615-1.245-1.143-2.124-1.143c-1.421,0-2.271,1.172-2.271,2.739c0,1.567,0.85,2.725,2.271,2.725
				C357.105,474.484,357.954,473.986,358.35,473.371z"/>
			<path id="XMLID_262_" style="fill:#9EB7C7;" d="M364.692,475.29v-9.771h1.099v3.765c0.571-0.776,1.421-1.245,2.388-1.245
				c1.845,0,3.149,1.465,3.149,3.721c0,2.3-1.304,3.706-3.149,3.706c-0.996,0-1.86-0.513-2.388-1.23v1.055H364.692z M367.9,474.484
				c1.436,0,2.285-1.157,2.285-2.725c0-1.567-0.85-2.739-2.285-2.739c-0.864,0-1.729,0.527-2.109,1.143v3.208
				C366.171,473.986,367.036,474.484,367.9,474.484z"/>
			<path id="XMLID_260_" style="fill:#9EB7C7;" d="M372.528,477.062c0.161,0.073,0.425,0.117,0.601,0.117
				c0.483,0,0.806-0.161,1.055-0.747l0.469-1.069l-2.959-7.148h1.186l2.358,5.801l2.344-5.801h1.2l-3.545,8.511
				c-0.425,1.024-1.143,1.421-2.08,1.436c-0.234,0-0.6-0.044-0.806-0.104L372.528,477.062z"/>
		</g>
	</g>
</g>
</svg>
